<?xml version="1.0" encoding="utf-8"?>
<!DOCTYPE svg PUBLIC "-//W3C//DTD SVG 1.1//EN" "http://www.w3.org/Graphics/SVG/1.1/DTD/svg11.dtd">
<svg version="1.1" id="Layer_1" xmlns="http://www.w3.org/2000/svg" xmlns:xlink="http://www.w3.org/1999/xlink" x="0px" y="0px"
	 viewBox="187.028 221.2372 1540.024 1190.969" enable-background="new 187.028 221.2372 1540.024 1190.969" xml:space="preserve">
<g id="_x23_ffffffff">
</g>
<g>
	<path fill="#F2F2F2" d="M1096.02,266.14c2.8199-0.63,5.6899-1.01,8.6-0.99c4.78,10.31,9.9301,20.46,14.22,31
		c26.25,57.5,52.2201,115.15,78.28,172.76c2.58,6.04,5.78,11.8,8.05,17.98c0.76,2.19,1.8199,4.28,3.49,5.92
		c25.09-30.28,50.38-60.36,75.5299-90.57c5.28-6.4,11.0901-12.37,15.9401-19.11c2.46-3.45,5.58-6.35,8.28-9.61
		c11.35-14.3,23.5599-27.89,34.9399-42.16c16.97-20.34,34.28-40.39,50.97-60.97c1.5601-1.91,3.3301-3.65,5.2201-5.24
		c14.5399,12.24,29.0299,24.52,43.5699,36.77c7.7001,5.95,14.71,12.75,22.5,18.6c13.9401,12.4,28.5701,23.98,42.62,36.26
		c29.0601,24.24,57.8,48.91,86.96,73.04c3.3701,3.33,7.16,6.16,10.92,9.04c8.27,7.76,17.41,14.53,25.85,22.12
		c5.3201,4.36,10.41,9,15.8301,13.26c7.71,6.04,14.76,12.86,22.48,18.9c-3.41,6.05-8.5701,10.87-12.8201,16.32
		c-6.71,8.59-14.1,16.61-20.88,25.14c-4.0699,5.85-9.1599,10.88-13.5199,16.51c-9.3201,10.71-17.9701,21.98-27.15,32.82
		c-5.48,7.13-11.8,13.55-17.22,20.72c-4.67,6.3-10.3201,11.77-14.9701,18.0699c-10.8199,13.19-21.73,26.32-32.49,39.55
		c-7.34,8.05-13.6799,16.91-21.0399,24.94c-7.7001,9.6-15.4501,19.16-23.52,28.46c-3.9701,3.78-6.5,8.74-10.37,12.61
		c-3.5,3.5699-6.16,7.83-9.4301,11.59c-2.01,2.41-4.4299,4.56-5.71,7.48c26.02,3.37,52.15,5.87,78.1799,9.2
		c22.24,2.41,44.4301,5.17,66.6901,7.41c1.01,0.33,3.1-0.13,2.83,1.59c-19.08,3.93-38.09,8.18-57.1899,12.01
		c-24.51,5.39-49.2201,9.86-73.7001,15.39c-5.23,1.15-10.4299,2.44-15.71,3.32c-1,0.29-2.25,0.15-2.95,1.01
		c-0.8401,3.29,0.08,6.87-1.3301,10.04c0.02-0.83,0.0801-2.51,0.11-3.35c0.04-2.3199,0.04-4.64,0.1001-6.95
		c-15.02,2.99-29.9601,6.35-44.9801,9.25c-3.96,0.84-7.88,1.8-11.84,2.56c-40.23,8.48-80.48,16.83-120.73,25.24
		c-4.48,0.96-8.97,1.85-13.45,2.8c-39.5601,8.31-79.14,16.51-118.7001,24.84c-4.39,0.91-8.77,1.79-13.15,2.7
		c-39.6899,8.35-79.3999,16.6-119.1,24.91c-5.08,1.08-10.17,2.08-15.24,3.17c-39.03,8.19-78.08,16.3-117.1,24.49
		c-4.61,0.98-9.22,1.91-13.82,2.89c-33,6.87-65.99,13.76-98.97,20.7c-2.64,0.48-5.4,1.46-8.03,0.45
		c-30.92-9.1-61.9-17.96-92.82-27.03c-2.89-0.84-5.76-1.72-8.65-2.53c-2.14-0.59-4.27-1.19-6.35-1.91l-0.1-0.05
		c180.62-36.53,361.3199-72.66,541.95-109.11c87.37-17.63,174.78-35.02,262.11-52.81c-2.72-4.75-7.2-8.05-10.87-12
		c-51.4099-51.89-102.87-103.73-154.4-155.51c-23.96-24.38-48.09-48.58-72.2-72.82c-3.83-3.9-7.71-7.75-11.4-11.78
		c-1.58-2-4.0499-1.69-6.27-1.24C1046.73,521.58,889.35,548.75,732,576.09c-82.31,14.33-164.67,28.42-246.95,42.8799
		c50.31,86.84,101.29,173.3101,151.79,260.04c5.0099,8.95,10.53,17.61,15.58,26.54c0.48,1.02,0.87,2.08,1.25,3.17
		C615.04,886.76,576.38,864.84,537.8,842.78c-2.65,2.02-6.22,3.8799-9.44,1.89c-3.31-1.67-3.55-5.66-3.13-8.89
		c-11.58-6.84-23.42-13.26-35.03-20.04c-1.57-0.93-3.18-1.82-4.94-2.29c-1.68-0.43-3.4-0.84-4.82-1.86
		c-13.83-9.11-28.72-16.45-42.63-25.41c-12.4-6.78-24.44-14.25-36.55-21.47c-4.18-6.58-7.83-13.51-11.63-20.32
		c-4.58-6.67-7.65-14.2-12.07-20.96c-9.47-17.1-19.38-33.95-28.99-50.98c-9.13-15.9-17.89-32.01-27.4-47.69
		c-12.79-23.37-26.26-46.36-39.53-69.45c-4.64-9.2-10.39-17.77-15.1-26.93c-7.43-11.74-13.56-24.24-20.86-36.05
		c-0.81-1.4-1.35-2.93-1.87-4.45c3.78,0.07,6.58,2.91,9.82,4.46c16.9,8.6,33.14,18.42,50.01,27.09
		c18.01,9.95,36.09,19.79,54.01,29.9c12.1,6.06,23.65,13.13,35.68,19.33c10.08,5.61,20.32,10.95,30.36,16.64
		c8.88,4.31,17.06,9.93,26.04,14.04c11.28,6.3799,22.52,12.92,34.23,18.5c-1.57-5.72-4.06-11.1-6.01-16.6801
		c-2.42-7.02-4.8-14.05-7.01-21.14c-6.82-18.33-12.87-36.95-19.48-55.36c-2.59-6.0699-3.89-12.58-6.47-18.66
		c-3.81-11.46-8.2-22.71-11.76-34.25c-6.87-18.1-12.4-36.65-19.36-54.72c-3.98-11.92-8.14-23.78-12.31-35.63
		c-1.38-3.6-2.98-7.17-3.45-11.03c12.17-2.39,24.54-3.56,36.76-5.67c56.74-8.47,113.51-16.86,170.25-25.37
		c16.85-2.63,33.77-4.82,50.59-7.68c37.49-5.12,74.83-11.23,112.28-16.59c101.66-15.12,203.31-30.33,304.98-45.41
		C1080.6,268.15,1088.4,267.71,1096.02,266.14z"/>
	<path fill="#D7D7D7" d="M732,576.09c157.35-27.34,314.73-54.51,472.0699-81.86c2.2201-0.45,4.6901-0.76,6.27,1.24
		c-0.58-0.03-1.74-0.1-2.3099-0.13c-0.1,5.67,0.0699,11.35-0.5901,16.99c-0.8999,7.07-0.0499,14.21-0.8899,21.29
		c-1.0601,9.64-0.04,19.36-1,29.01c-1.0701,9.66,0.01,19.39-1,29.05c-0.7001,6.41-0.5801,12.86-0.54,19.3
		c0.0699,7.37-1.34,14.68-0.98,22.06c0.4199,9.69-1.3401,19.3-0.97,28.9901c0.1599,11.0099-1.4901,21.95-1.0601,32.98
		c0.49,10.36-1.34,20.63-1.01,30.99c0.01,5.72,0.01,11.46-0.62,17.15c-0.86,7.14,0.04,14.35-0.83,21.49
		c-1.02,8.95-0.02,17.98-0.98,26.93c-0.29,2.93-0.41,5.87-0.4601,8.82c-180.63,36.45-361.33,72.58-541.95,109.11
		c-0.51-0.27-1-0.53-1.48-0.78c-0.38-1.09-0.77-2.15-1.25-3.17c-5.05-8.93-10.57-17.59-15.58-26.54
		c-50.5-86.73-101.48-173.2-151.79-260.04C567.33,604.51,649.69,590.42,732,576.09z"/>
	<path fill="#CECECE" d="M1208.03,495.34c0.5699,0.03,1.73,0.1,2.3099,0.13c3.6901,4.03,7.5701,7.88,11.4,11.78
		c24.11,24.24,48.24,48.44,72.2,72.82c51.53,51.78,102.9901,103.62,154.4,155.51c3.67,3.95,8.15,7.25,10.87,12
		c-87.33,17.79-174.74,35.18-262.11,52.81c0.05-2.95,0.17-5.89,0.4601-8.82c0.96-8.95-0.04-17.98,0.98-26.93
		c0.87-7.14-0.03-14.35,0.83-21.49c0.63-5.69,0.63-11.4301,0.62-17.15c-0.33-10.36,1.5-20.63,1.01-30.99
		c-0.4301-11.03,1.22-21.97,1.0601-32.98c-0.3701-9.69,1.3899-19.3,0.97-28.9901c-0.36-7.38,1.0499-14.69,0.98-22.06
		c-0.04-6.44-0.16-12.89,0.54-19.3c1.01-9.66-0.0701-19.39,1-29.05c0.96-9.65-0.0601-19.37,1-29.01
		c0.84-7.08-0.01-14.22,0.8899-21.29C1208.1,506.69,1207.9301,501.01,1208.03,495.34z"/>
	<path fill="#2C4468" d="M1413.2,806.27c15.02-2.9,29.9601-6.26,44.9801-9.25c-0.0601,2.31-0.0601,4.63-0.1001,6.95
		c-0.8999,2.3-2.4299,4.25-3.5299,6.44c-1.03,2.56,0.7799,4.9,1.84,7.11c1.04,1.96,0.7,4.27,0.79,6.43
		c-0.5701,12.3-0.92,24.62-1.5701,36.93c-0.2999,1.66,0.1,3.64-1.03,5.04c0.6001,1.28,0.8301,2.63,0.7101,4.07
		c-4.3501,106.63-8.8,213.25-13.0801,319.88c-0.33,1.22,0.65,3.55-1.1899,3.75c-18.09,4.22-36.2001,8.39-54.3201,12.48
		c-2.0399-1.13-4.23-2.6699-6.6799-2.01c-2.7001,0.3-4.16,2.74-5.5,4.78c-39.5801,9.26-79.21,18.34-118.85,27.37
		c-1.11-1.79-1.92-4.05-3.9501-4.96c-3.0399-1.67-7.27-0.5601-8.99,2.46c-0.6899,1.8-0.5699,3.78-0.77,5.7
		c-39.88,9.25-79.7999,18.3401-119.6899,27.5901c-0.02-2.47,0.63-5.26-1.0701-7.3101c-2.5599-3.77-8.87-3.45-11.08,0.49
		c-2.01,2.99-0.12,6.49,0.75,9.55c-22.71,4.9399-45.33,10.35-67.98,15.54c-2.92-0.4801-5.83-2.14-8.8101-1.3201
		c-2.24,0.49-3.37,2.66-4.64,4.34c-39.14,9.15-78.3599,17.9601-117.4899,27.15c-0.39-0.09-1.16-0.27-1.55-0.36
		c-1.89-2.77-4.5-5.77-8.27-4.79c-4.29,0.4401-5.49,5.0901-5.67,8.7001c-39.69,9-79.33,18.26-119.01,27.3099
		c-0.21-2.9099,0.06-6.5499-2.82-8.25c-3.42-2.7899-9.04-0.96-10.3,3.2101c-0.97,2.72,0.6,5.36,1.64,7.8099
		c-23.42,5.0801-46.71,10.8301-70.1299,15.9501c-1.81-0.77-3.6201-2.16-5.69-1.75c-2.77,0.2699-4.32,2.8199-6.19,4.5399
		c-1.59,1.02-3.27,0.26-3.27-1.6599c1.04-6.4-0.24-12.8201-0.32-19.2301c-3.16-53.2999-6.17-106.6-9.38-159.8999
		c-0.04-2.62-0.02-5.3-1.19-7.7001c0.91-4.39,0.31-8.85-0.03-13.25c-0.49-9.61-1-19.23-1.81-28.8199l0.27-0.38
		c3.65-3.11,4.05-9.54-0.74-11.8c-0.02-0.1899-0.06-0.5699-0.08-0.76c-0.99-13.0699-1.33-26.1799-2.43-39.24
		c3.26-1.37,6.88-4.02,6.15-8.0699c-0.29-3.72-3.78-5.51-6.97-6.3401c-0.74-13.08-1.27-26.1799-2.3-39.24
		c3.21-0.0399,7.36-0.25,8.69-3.7999c2.46-4.82-2.23-10.8-7.52-9.46c-0.52,0.02-1.57,0.05-2.1,0.06
		c-0.49-14.16-1.19-28.33-2.45-42.43c2.86,1.64,6.58,3.77,9.68,1.38c4.2401-2.6,3.81-9.55-0.73-11.58c-3.34-1.88-6.95,0.2-9.27,2.66
		c-0.65-15.4301-1.74-30.83-2.59-46.25c-0.26-4.16-0.6-8.32-0.32-12.48c2.08,0.72,4.21,1.32,6.35,1.91
		c-2.05,2.67-5.13,5.86-3.31,9.5c1.57,4.64,8.53,5.66,11.39,1.68c2.21-2.45,1.2-5.82,0.57-8.65c30.92,9.07,61.9,17.93,92.82,27.03
		c2.63,1.01,5.39,0.03,8.03-0.45c32.98-6.94,65.97-13.83,98.97-20.7c1.37,3.12,4.16,6.06,7.93,5.22c4.06-0.39,5.56-4.63,5.89-8.11
		c39.02-8.19,78.07-16.3,117.1-24.49c0.38,0.02,1.14,0.08,1.53,0.1c1.28,1.95,1.99,4.75,4.52,5.48c2.92,1.37,6.55,0.03,8.3-2.57
		c1.22-1.82,0.69-4.14,0.89-6.18c39.7001-8.31,79.41-16.56,119.1-24.91c0.63,1.9301,0.7201,4.34,2.4501,5.73
		c2.59,2.65,7.45,2.4,9.76-0.51c2.0499-2.16,1.1499-5.3,0.9399-7.92c39.5601-8.33,79.14-16.53,118.7001-24.84l0.9399,0.15
		c0.6,2.41,0.5,5.45,2.83,7c3.2001,2.77,8.63,1.36,10.29-2.45c1.09-2.46-0.05-5.08-0.61-7.5c40.25-8.41,80.5-16.76,120.73-25.24
		c0.14,2.52-0.5699,5.49,1.22,7.61c2.7001,3.48,8.91,3.18,11.03-0.79C1415.38,812.7,1413.71,809.34,1413.2,806.27 M1325.52,832.65
		c-5.04,2.04-5.24,9.83-0.36,12.17c4.51,2.49,10.58-1.8,9.65-6.87C1334.59,833.53,1329.41,830.86,1325.52,832.65 M1379.22,832.43
		c-4.2999,1.3-6.0399,7.08-3.1799,10.56c3.14,4.4,11.24,2.54,11.83-2.97C1389.02,835.17,1383.85,830.75,1379.22,832.43
		 M1432.37,832.4c-4.51,1.3199-6.25,7.78-2.8,11.0699c3.17,3.48,9.88,2.25,11.15-2.4399C1442.7,836.05,1437.41,830.55,1432.37,832.4
		 M1192.3,859.42c-3.62,1.82-4.76,7.18-1.92,10.2c3.05,4.14,10.67,2.58,11.52-2.64C1203.64,861.6,1197.14,856.63,1192.3,859.42
		 M1245.27,859.48c-4.55,2.38-4.4501,9.71,0.29,11.85c4.7,2.6,10.95-2.12,9.5399-7.35
		C1254.4399,859.58,1249.01,857.35,1245.27,859.48 M1299.17,859.19c-4.67,1.56-5.5901,8.5-1.7201,11.38
		c3.52,2.95,9.7201,1.13,10.6801-3.52C1309.78,862,1303.96,856.84,1299.17,859.19 M1352.13,859.23
		c-4.21,1.61-5.4301,7.73-2.16,10.82c3.55,4,11.4301,1.47,11.4401-4.11C1362.11,861.01,1356.5601,857.07,1352.13,859.23
		 M1404.36,859.59c-4,2.34-4.2999,8.69-0.41,11.28c4.2301,3.11,11.2301-0.44,10.5901-5.87C1414.5,860.03,1408.47,857,1404.36,859.59
		 M1113.49,885.64c-4.28,1.35-5.83,7.4-2.77,10.67c3.0901,3.88,10.11,2.58,11.4401-2.28
		C1124.08,888.98,1118.52,883.51,1113.49,885.64 M1166.4,885.7c-4.63,1.61-5.6901,8.66-1.62,11.46
		c3.9199,3.46,11.24,0.19,10.8099-5.18C1176.03,887.25,1170.5699,883.94,1166.4,885.7 M1220.33,885.45
		c-5.14,1.06-6.86,8.68-2.45,11.66c3.89,3.61,11.1801,0.24,10.78-5.09C1229.02,887.7,1224.39,884.3,1220.33,885.45 M1273.33,885.5
		c-5,1.18-6.7899,8.49-2.46,11.51c3.5,3.33,9.85,1.06,10.8-3.57C1282.95,888.76,1277.96,884,1273.33,885.5 M1326.38,885.47
		c-4.6801,1.1801-6.49,7.7401-2.99,11.1c3.2,3.57,9.87,2.14,11.16-2.52C1336.4301,889.2,1331.38,883.79,1326.38,885.47
		 M1379.3101,885.54c-4.0601,1.12-5.9701,6.37-3.7001,9.9c2.47,4.62,10.3101,3.95,11.9-1.07
		C1389.72,889.42,1384.46,883.65,1379.3101,885.54 M1432.36,885.57c-5.0599,1.33-6.35,9.03-1.85,11.79
		c3.6899,2.87,9.9,0.57,10.45-4.19C1442.17,888.37,1436.97,883.83,1432.36,885.57 M1059.24,886.24
		c-4.23,2.26-4.1899,9.19,0.03,11.43c4.13,2.72,10.38-0.73,10.14-5.73C1069.62,886.91,1063.41,883.42,1059.24,886.24 M927.25,912.33
		c-4.35,1.7-5.31,8.13-1.79,11.13c3.5,3.34,10.29,1.45,11-3.54C937.94,914.74,932.03,910.03,927.25,912.33 M980.22,912.4
		c-4.5099,1.9-5.18,8.74-1.14,11.5c3.91,3.15,10.47,0.22,10.65-4.83C990.35,914.11,984.69,910.11,980.22,912.4 M1033.34,912.41
		c-5.0599,2-5.0599,10.19,0.04,12.15c4.3,2.28,10.1801-1.74,9.4-6.61C1042.8,913.4,1037.29,910.44,1033.34,912.41 M1086.29,912.44
		c-5.0801,2.2-4.86,10.83,0.7,12.26c4.26,1.94,9.4401-2.1,8.95-6.65C1095.9,913.41,1090.34,910.37,1086.29,912.44 M1139.4,912.42
		c-4.88,2.05-4.9401,10.26,0.14,12.11c4.36,2.22,10.12-1.59,9.4099-6.54C1148.97,913.33,1143.42,910.42,1139.4,912.42
		 M1192.35,912.56c-3.58,1.81-4.89,7.03-2.0599,10.07c2.8099,4.1,9.99,2.89,11.4399-1.85
		C1204.0601,915.41,1197.46,909.5,1192.35,912.56 M1245.45,912.53c-4.1799,2.06-4.8199,8.23-1.1499,11.1
		c3.5499,3.16,9.7999,1.11,10.7699-3.55C1256.64,914.76,1250.26,909.79,1245.45,912.53 M1299.22,912.26
		c-5.1899,1.72-5.6899,9.98-0.6,12.14c4.6801,2.9,11.0699-2.13,9.55-7.37C1307.62,912.96,1302.84,910.78,1299.22,912.26
		 M1352.21,912.3c-4.7799,1.67-5.58,9.01-1.26,11.66c4.2301,3.3,11.2101-0.57,10.4501-5.95
		C1361.38,913.49,1356.21,910.59,1352.21,912.3 M1405.1899,912.3c-4.8899,1.88-5.3999,9.7-0.6,12
		c4.36,2.68,10.5601-1.11,9.9501-6.26C1414.46,913.46,1409.27,910.51,1405.1899,912.3 M689.39,938.57
		c-4.57,0.98-6.66,7.06-3.58,10.61c2.96,4.24,10.49,2.87,11.62-2.25C699.13,942.19,694.13,937.12,689.39,938.57 M742.45,938.52
		c-4.5,1.04-6.63,7.09-3.54,10.62c2.72,3.93,9.3701,3.18,11.2-1.23C752.87,943.16,747.62,936.95,742.45,938.52 M1007.42,938.66
		c-4.7,1.42-6,8.09-2.37,11.32c3.61,3.58,10.71,1.25,11.17-3.92C1017.19,941.23,1011.97,936.95,1007.42,938.66 M793.4,939.56
		c-3.6801,2.4-3.79,8.54-0.01,10.92c4.04,3.27,10.92-0.21,10.52-5.45C804.14,939.83,797.52,936.34,793.4,939.56 M847.17,939.14
		c-4.89,2.34-4.46,10.15,0.54,12.08c4.64,2.1801,10.41-2.27,9.16-7.35C856.5,939.4,850.87,937.02,847.17,939.14 M900.21,939.09
		c-4.17,2.11-4.7401,8.73-0.76,11.33c3.72,3,10.15,0.5,10.52-4.37C911.23,940.77,904.77,936.43,900.21,939.09 M953.23,939.19
		c-5.21,2.52-4.07,11.47,1.76,12.34c4.81,1.4399,9.71-3.86,7.89-8.52C961.82,938.98,956.76,937.18,953.23,939.19 M1059.3199,939.26
		c-4.7999,2.5-4.13,10.64,1.17,12.13c4.92,1.93,10.4401-3.35,8.5701-8.32C1068.0601,938.97,1062.83,937.02,1059.3199,939.26
		 M1112.3101,939.33c-4.6801,2.55-3.9601,10.44,1.1699,12c3.91,1.55,8.48-1.17,8.9401-5.36
		C1123.45,940.63,1116.85,936.23,1112.3101,939.33 M1165.42,939.33c-4.3401,2.44-4.17,9.62,0.3999,11.67
		c3.92,2.13,9.3-0.6,9.7401-5.08C1176.6,940.58,1169.83,936.23,1165.42,939.33 M1218.37,939.43c-3.97,2.35-4.0699,8.9,0.0601,11.16
		c4.1,3.17,10.62-0.55,10.2599-5.6201C1228.88,939.91,1222.47,936.38,1218.37,939.43 M1271.37,939.55
		c-4.5,2.64-3.5599,10.16,1.39,11.71c4.55,2.02,9.85-2.41,8.96-7.22C1281.27,939.33,1275.12,936.64,1271.37,939.55 M1324.42,939.53
		c-3.26,2.17-3.9301,7.24-1.1001,10.04c3.2301,3.81,10.4,2.27,11.3201-2.81C1336.61,941.15,1329.01,935.77,1324.42,939.53
		 M1378.11,939.16c-4.25,2.07-4.67,8.81-0.65,11.35c4.04,3.16,10.9701-0.21,10.49-5.48
		C1388.27,940.07,1382.3199,936.62,1378.11,939.16 M1431.16,939.16c-4.41,2.27-4.55,9.38-0.1,11.6801
		c4.62,2.93,11.21-1.57,9.9099-6.96C1440.58,939.36,1434.9,936.97,1431.16,939.16 M715.23,965.36c-4.69,1.5-5.92,8.47-1.91,11.38
		c3.34,2.92,9.2,1.33,10.59-2.87C726.02,968.86,720.23,963.16,715.23,965.36 M768.24,965.35c-4.81,1.61-5.74,9.11-1.32,11.72
		c3.9,2.97,10.44,0.02,10.42-5.01C777.91,967.32,772.58,963.6,768.24,965.35 M821.3,965.4c-4.74,1.61-5.8,9.0699-1.34,11.64
		c3.92,3.05,10.2599,0.11,10.5-4.85C831.06,967.36,825.76,963.44,821.3,965.4 M874.26,965.37c-5.18,1.94-5.49,10.41-0.1,12.35
		c4.81,2.5,10.73-2.6299,9.1801-7.71C882.64,965.9,877.92,964.06,874.26,965.37 M927.32,965.44c-5.21,1.85-5.3,10.31-0.12,12.23
		c4.4,2.21,10.22-1.7,9.43-6.68C936.51,966.49,931.28,963.63,927.32,965.44 M981.12,965.26c-4.94,1.08-6.28,7.94-2.67,11.2
		c3.67,3.87,11.35,1.06,11.28-4.41C990.27,967.54,985.36,963.69,981.12,965.26 M1033.38,965.52c-5.09,1.8-5.08,9.76-0.36,12.01
		c4,2.3199,9.75-0.8101,9.79-5.47C1043.42,967.23,1037.6899,963.28,1033.38,965.52 M1087.1899,965.28
		c-4.8199,1.15-6.09,7.92-2.6,11.16c3.4601,3.49,10.5,1.57,11.24-3.45C1097.09,968.16,1091.8199,963.49,1087.1899,965.28
		 M1140.16,965.32c-4.03,1.22-5.77,6.5-3.41,9.95c2.61,4.5,10.53,3.61,11.9-1.49C1150.6801,968.78,1145.1801,963.31,1140.16,965.32
		 M1193.25,965.32c-3.61,1.28-5.74,5.86-3.72,9.31c2.0499,4.83,10.03,4.84,11.9099-0.17
		C1204.21,969.4,1198.58,963.09,1193.25,965.32 M1246.1,965.35c-4.5399,1.66-5.73,8.4901-1.74,11.38
		c3.5601,3.25,9.9401,1.03,10.74-3.71C1256.52,967.97,1250.8101,963.33,1246.1,965.35 M1298.46,965.7
		c-4.52,2.21-4.59,9.72,0.12,11.75c4.29,2.62,10.5601-1.32,9.7201-6.4C1308.24,966.31,1302.45,963.43,1298.46,965.7 M1351.52,965.68
		c-3.88,2.06-4.71,8.14-1.14,10.9c3.73,3.69,11.16,0.85,11.08-4.56C1361.99,966.9,1355.9399,963.13,1351.52,965.68 M1405.3,965.43
		c-4.7101,1.62-5.6101,8.9-1.3401,11.55c3.9501,3.21,10.5801,0.12,10.5801-5C1415.0601,967.14,1409.67,963.42,1405.3,965.43
		 M687.39,992.55c-4.48,2.62-3.81,10.3,1.25,11.81c4.23,1.83,9.33-1.8,9.05-6.38C697.94,992.92,691.43,989.65,687.39,992.55
		 M741.15,992.14c-4.45,1.97-5.06,9.05-0.76,11.53c3.52,2.57,9.19,0.65,10.13-3.7C752.36,994.66,746.08,989.43,741.15,992.14
		 M794.14,992.18c-4.27,2.01-4.96,8.9-0.77,11.39c3.73,3,10.2,0.36,10.46-4.5C804.89,993.87,798.69,989.65,794.14,992.18
		 M847.2,992.22c-4.1,1.8701-4.76,8.07-1.33,10.91c3.55,3.63,10.83,1.09,11.04-4.09C857.9,993.84,851.75,989.63,847.2,992.22
		 M900.2,992.22c-3.91,2-4.71,8.04-1.28,10.88c3.63,3.61,10.7,1.22,11.12-4C911.13,993.81,904.77,989.63,900.2,992.22
		 M953.27,992.32c-4.42,2.15-4.49,9.15-0.28,11.58c3.95,2.5099,9.7-0.22,10.23-4.89C964.08,993.77,957.83,989.55,953.27,992.32
		 M1006.32,992.35c-4.64,2.21-4.3,10,0.48,11.89c4.25,2.11,9.86-1.46,9.49-6.26C1016.52,993.03,1010.42,989.83,1006.32,992.35
		 M1059.34,992.36c-5.14,2.64-3.9399,11.54,1.9501,12.29c4.7799,1.34,9.6499-3.96,7.76-8.58
		C1068.02,992.01,1062.8,990.3,1059.34,992.36 M1112.34,992.44c-4.96,2.64-3.8199,11.02,1.7101,12.14
		c4.9099,1.7,10.0299-3.82,8.09-8.55C1120.96,992.04,1115.8199,990.21,1112.34,992.44 M1165.42,992.37
		c-2.76,1.91-4.1801,5.76-2.4401,8.83c1.99,4.91,10.25,4.77,12.02-0.29C1177.98,995.27,1170.66,988.91,1165.42,992.37
		 M1218.41,992.53c-3.99,2.33-4.0601,8.78-0.1,11.17c3.85,2.87,9.9299,0.07,10.34-4.72
		C1229.72,993.54,1222.84,989.37,1218.41,992.53 M1271.39,992.57c-4.35,2.68-3.74,10.15,1.26,11.73c4.23,1.96,9.41-1.65,9.13-6.27
		C1282.03,992.89,1275.49,989.65,1271.39,992.57 M1325.1899,992.15c-3.6699,1.7599-4.8199,6.81-2.37,10.06
		c3,4.2599,10.66,2.97,11.87-2.2C1336.45,994.66,1330.1,989.47,1325.1899,992.15 M1378.1801,992.2
		c-3.9701,1.9-4.92,8.18-1.3101,10.92c3.6,3.55,10.79,1.15,11.01-4.07C1388.9399,993.79,1382.75,989.64,1378.1801,992.2
		 M1431.22,992.25c-4.2,1.96-4.65,8.63-0.84,11.25c3.67,3.13,10.33,0.49,10.61-4.43C1442.09,993.77,1435.79,989.62,1431.22,992.25
		 M715.29,1018.48c-4.53,1.25-5.81,7.7001-2.54,10.87c3.09,3.5701,9.86,2.23,11.12-2.41
		C725.96,1021.99,720.25,1016.21,715.29,1018.48 M768.21,1018.41c-4.81,1.72-5.67,9.0201-1.4,11.81
		c3.74,2.7101,9.72,0.47,10.45-4.1799C778.43,1021.08,772.9,1016.48,768.21,1018.41 M821.32,1018.46
		c-4.83,1.49-5.69,8.97-1.45,11.64c3.67,2.9401,9.9,0.59,10.48-4.16C831.62,1020.94,825.94,1016.56,821.32,1018.46 M874.31,1018.47
		c-4.46,1.58-5.56,8.1801-1.95,11.2001c3.53,3.51,10.47,1.3099,11.08-3.7301C884.69,1020.86,878.99,1016.47,874.31,1018.47
		 M927.31,1018.54c-4.34,1.63-5.47,8.08-1.89,11.06c3.51,3.53,10.54,1.4501,11.11-3.64
		C937.84,1020.83,931.99,1016.33,927.31,1018.54 M981.21,1018.29c-5.23,1.04-6.4901,8.72-2.2401,11.71
		c3.79,3.29,10.47,0.47,10.75-4.55C990.37,1020.89,985.62,1016.78,981.21,1018.29 M1034.21,1018.32
		c-4.5299,1.12-6.1699,7.27-3.1699,10.72c3.0499,4.01,10.24,2.5699,11.47-2.3401C1044.38,1021.82,1039.0699,1016.63,1034.21,1018.32
		 M1087.1899,1018.34c-4.8999,1.3799-6.25,8.59-2.1399,11.6099c3.6399,3.05,10.09,0.92,10.7699-3.9199
		C1097.04,1021.21,1091.83,1016.58,1087.1899,1018.34 M1140.13,1018.3c-5.23,1.77-6.1,10.07-0.84,12.34
		c4.4399,2.6799,10.62-1.62,9.62-6.69C1148.8,1019.69,1143.97,1017.04,1140.13,1018.3 M1193.28,1018.41
		c-4.22,1.27-5.98,6.97-3.1,10.3701c2.75,4.1899,10.21,3.11,11.5299-1.8C1203.83,1022.05,1198.36,1016.18,1193.28,1018.41
		 M1246.29,1018.42c-3.79,1.24-5.79,6.29-3.4501,9.67c2.29,4.9501,10.63,4.0801,12.0601-1.12
		C1256.86,1021.92,1251.4,1016.35,1246.29,1018.42 M1299.35,1018.46c-4.6799,1.34-5.85,8.3-2.0499,11.2299
		c3.45,3.5,10.33,1.26,10.9199-3.6699C1309.49,1021.16,1303.96,1016.35,1299.35,1018.46 M1352.29,1018.38
		c-5.27,1.92-5.64,10.35-0.28,12.41c4.47,2.3199,10.17-1.8101,9.38-6.77C1361.23,1019.66,1356.1801,1016.96,1352.29,1018.38
		 M1405.3,1018.51c-4.78,1.55-5.52,8.86-1.4,11.61c4.0399,3.17,10.66,0.0699,10.63-5.13
		C1414.96,1020.2,1409.61,1016.7,1405.3,1018.51 M688.09,1045.26c-4.15,1.87-4.9901,8.11-1.56,11.08
		c3.5099,2.99,10.06,1.53,10.91-3.36C699.2,1047.74,692.94,1042.54,688.09,1045.26 M741.19,1045.28
		c-5.02,2.03-4.85,10.3199,0.29,12.09c3.89,1.76,8.94-0.89,9.24-5.25C751.69,1047.0601,745.67,1042.89,741.19,1045.28
		 M794.2,1045.29c-4.44,1.88-4.89,8.88-0.84,11.45c3.81,2.78,10.42,0.3101,10.48-4.7C804.69,1047.01,798.65,1042.8,794.2,1045.29
		 M847.3,1045.3199c-4.39,1.87-5.01,8.78-0.94,11.3101c3.75,3.0699,10.34,0.4,10.62-4.54
		C857.81,1047.05,851.77,1042.7,847.3,1045.3199 M899.6,1045.6801c-4.72,2.9399-3.16,11.33,2.45,12.09
		c4.54,1.13,9.14-3.3301,7.89-7.9C909.27,1045.25,903.3,1043.21,899.6,1045.6801 M953.27,1045.38
		c-4.42,2.1899-4.5,9.3199-0.19,11.6801c4.27,2.5599,10.6-0.9,10.14-6.04C963.26,1046.12,957.45,1042.9301,953.27,1045.38
		 M1006.35,1045.47c-4.55,2.2101-4.45,9.88,0.29,11.8201c4.32,2.23,10.17-1.38,9.67-6.3401
		C1016.45,1046.1,1010.36,1042.92,1006.35,1045.47 M1059.3199,1045.5601c-4.22,2.1799-4.35,9-0.24,11.37
		c3.91,2.5599,10.03-0.05,10.3-4.9C1070.3,1046.71,1063.73,1042.58,1059.3199,1045.5601 M1113.16,1045.21
		c-4.48,1.73-5.39,8.3101-1.5701,11.2001c3.4701,3.0299,9.6901,1.21,10.65-3.4C1124,1047.91,1117.9399,1042.6,1113.16,1045.21
		 M1165.39,1045.59c-4.1,2.3-4.21,8.89-0.17,11.27c3.88,2.59,10.2001,0.03,10.3201-4.9299
		C1176.46,1046.62,1169.76,1042.53,1165.39,1045.59 M1219.1801,1045.23c-4.67,1.8201-5.1101,9.04-0.92,11.6
		c3.59,2.42,9.35,0.5901,10.1899-3.87C1230.2,1047.8101,1223.9399,1042.61,1219.1801,1045.23 M1272.1801,1045.24
		c-4.2201,1.85-5.03,8.24-1.4601,11.13c3.47,3.03,9.9301,1.41,10.8201-3.37C1283.34,1047.72,1277.03,1042.5699,1272.1801,1045.24
		 M1325.1801,1045.3c-4.4901,1.8999-4.8601,8.85-0.8301,11.4399c3.87,2.76,10.3301,0.3,10.4401-4.73
		C1335.73,1046.9399,1329.6,1042.86,1325.1801,1045.3 M1377.49,1045.66c-4.4299,2.85-3.48,10.7,1.83,11.9199
		c4.9501,2,10.2001-3.5,8.3501-8.38C1386.48,1044.98,1381.05,1043.3199,1377.49,1045.66 M1431.3,1045.35
		c-4.3401,1.89-4.8201,8.64-0.91,11.23c3.37,2.9,9.61,0.92,10.42-3.5499C1442.74,1047.6801,1436.12,1042.47,1431.3,1045.35
		 M715.35,1071.53c-4.46,1.3099-5.96,7.59-2.7,10.86c3.13,3.6799,10.0099,2.35,11.24-2.42
		C725.93,1074.96,720.33,1069.47,715.35,1071.53 M768.41,1071.52c-4.8799,1.4299-5.94,8.89-1.74,11.6699
		c3.35,2.7201,9.22,1.04,10.35-3.22C779.04,1074.9399,773.39,1069.49,768.41,1071.52 M821.44,1071.5699
		c-4.45,1.2101-5.75,7.41-2.67,10.66c2.97,3.9,10.01,2.49,11.3-2.25C832.16,1074.96,826.41,1069.45,821.44,1071.5699
		 M875.21,1071.36c-4.75,0.92-6.58,7.34-3.38,10.83c2.78,3.65,9.1,2.8,10.98-1.34C885.65,1076.11,880.48,1069.64,875.21,1071.36
		 M928.21,1071.38c-5.26,1.1-6.66,8.74-2.31,11.75c3.93,3.4301,10.95,0.08,10.73-5.13C936.98,1073.63,932.32,1070.16,928.21,1071.38
		 M981.38,1071.38c-4.9,0.99-6.77,7.91-2.99,11.2c3.46,3.88,10.6,1.54,11.25-3.5699C990.7,1074.35,985.94,1069.9301,981.38,1071.38
		 M1034.26,1071.42c-4.76,1.12-6.46,7.83-2.83,11.12c3.46,3.8199,10.62,1.61,11.2999-3.51
		C1043.92,1074.28,1038.8199,1069.9,1034.26,1071.42 M1087.3,1071.4399c-4.6001,1.2001-6.39,7.79-2.8,11.05
		c3.65,4.33,11.72,1.16,11.4399-4.51C1096.29,1073.51,1091.48,1070.02,1087.3,1071.4399 M1140.34,1071.45
		c-4.59,1.24-6.1699,7.64-2.9,11.01c3.2101,3.53,9.9,2.3,11.25-2.4299C1150.65,1075.04,1145.39,1069.6,1140.34,1071.45
		 M1193.35,1071.49c-4.5599,1.27-6.1799,7.6901-2.78,11c3.2101,3.67,10.03,2.08,11.2201-2.67
		C1203.67,1074.91,1198.29,1069.49,1193.35,1071.49 M1246.3,1071.51c-4.14,1.27-5.79,6.91-3.13,10.29
		c2.8199,4.2999,10.35,3.22,11.75-1.8101C1256.9301,1074.9301,1251.33,1069.5,1246.3,1071.51 M1299.37,1071.55
		c-4.72,1.3199-5.76,8.1799-2.23,11.2899c3.29,3.15,9.67,1.63,10.85-2.88C1309.95,1074.97,1304.35,1069.4301,1299.37,1071.55
		 M1352.39,1071.55c-5.04,1.59-5.87,9.5499-1.11,12c3.77,2.5,9.48-0.01,10.09-4.52
		C1362.52,1074.09,1356.99,1069.6899,1352.39,1071.55 M1405.41,1071.59c-5.11,1.5701-5.5801,9.37-1.0601,11.9401
		c4.04,2.77,10.3-0.51,10.2001-5.4501C1414.98,1073.37,1409.66,1069.85,1405.41,1071.59 M688.22,1098.25
		c-3.97,1.72-5.24,7.52-2.1899,10.66c3.25,3.7999,10.6299,2.24,11.47-2.9301C699.13,1100.74,693.07,1095.8101,688.22,1098.25
		 M741.23,1098.3101c-4.47,1.86-5.11,8.84-1.05,11.49c3.72,2.6799,9.77,0.7,10.49-4.04
		C752.07,1100.62,745.92,1095.73,741.23,1098.3101 M793.49,1098.6899c-3.7,2.41-4.04,8.6901-0.17,11.13
		c3.87,3.04,10.37,0.2401,10.55-4.75C804.67,1099.66,797.98,1095.71,793.49,1098.6899 M847.34,1098.37
		c-3.85,1.71-4.92,7.27-2.1201,10.38c3.11,4,10.6801,2.39,11.59-2.75C858.4,1100.77,852.14,1095.7,847.34,1098.37 M900.31,1098.4399
		c-5.47,2.42-4.22,11.6001,1.72,12.39c4.2,1.1001,8.56-2.59,8.04-6.9099C909.93,1099.3,904.32,1096.12,900.31,1098.4399
		 M953.32,1098.51c-5.67,2.62-3.77,12.49,2.63,12.4c5.01,0.9299,9.13-5.3301,6.47-9.6
		C960.94,1097.8101,956.51,1096.9301,953.32,1098.51 M1006.39,1098.49c-4.81,2.39-4.38,10.59,0.89,12.13
		c3.95,1.4301,8.78-1.25,8.98-5.59C1017.03,1099.87,1010.84,1095.79,1006.39,1098.49 M1059.34,1098.59
		c-5.4199,2.75-3.6699,12.26,2.6,12.29c4.77,1.05,8.92-4.5,7.01-8.83C1067.8199,1098.11,1062.71,1096.5601,1059.34,1098.59
		 M1113.2,1098.27c-5.11,1.78-5.4099,9.7999-0.5,12c4.28,2.59,10.39-1.23,9.8-6.24C1122.4301,1099.5,1117.29,1096.27,1113.2,1098.27
		 M1166.1801,1098.3c-3.3201,1.34-4.92,5.5699-3.3501,8.7899c1.8101,5.3,10.53,5.0801,12.29-0.1599
		C1177.63,1101.6899,1171.35,1095.51,1166.1801,1098.3 M1219.2,1098.3c-4.63,1.84-5.1399,9-1.0199,11.6699
		c3.49,2.11,8.96,0.85,10.1599-3.39C1230.51,1101.33,1224.22,1095.63,1219.2,1098.3 M1272.21,1098.29
		c-3.6899,1.64-5.01,6.9199-2.49,10.1c2.91,4.34,10.99,3.0499,11.85-2.36C1283.22,1100.75,1277.0601,1095.73,1272.21,1098.29
		 M1325.33,1098.3199c-3.9299,1.6801-5.0499,7.3301-2.1899,10.4901c3.25,3.8799,10.6799,2.35,11.5599-2.8601
		C1336.3101,1100.76,1330.0601,1095.75,1325.33,1098.3199 M1378.3199,1098.37c-4.38,1.85-5.0099,8.86-0.9299,11.4
		c3.9,2.9,10.4299,0.34,10.5499-4.74C1388.62,1100.05,1382.78,1095.9301,1378.3199,1098.37 M1431.37,1098.41
		c-4.39,1.99-4.83,8.5-1.04,11.3099c3.8,3.2101,10.53,0.37,10.6901-4.6699C1441.86,1100.02,1435.75,1095.86,1431.37,1098.41
		 M715.44,1124.6c-5.34,1.37-6.01,9.75-1.18,12.16c3.78,2.28,9.41-0.15,9.93-4.66C725.28,1127.29,720,1122.88,715.44,1124.6
		 M768.38,1124.66c-4.86,1.5-5.79,8.73-1.81,11.6699c3.44,2.61,9.42,1.03,10.46-3.35C779.02,1127.97,773.29,1122.59,768.38,1124.66
		 M874.46,1124.6899c-4.77,1.5601-5.69,8.6101-1.71,11.53c3.68,3.0801,10.24,0.66,10.72-4.22
		C884.51,1127.14,878.97,1122.77,874.46,1124.6899 M927.42,1124.6899c-4.59,1.8-5.59,8.5601-1.59,11.4901
		c3.73,3.1899,10.3,0.6799,10.76-4.28C937.55,1126.96,931.96,1122.71,927.42,1124.6899 M981.35,1124.51
		c-4.83,1.03-6.69,7.83-3,11.14c3.09,3.53,9.5,2.08,10.9301-2.36C991.44,1128.53,986.36,1122.8199,981.35,1124.51 M1034.29,1124.5
		c-4.6001,1.21-6.4401,7.76-2.9401,11.12c3.3301,3.75,10.35,1.85,11.3101-3.09C1043.98,1127.75,1039.05,1122.95,1034.29,1124.5
		 M1087.28,1124.5c-4.03,1.21-6.1,6.42-3.6901,10c2.64,4.74,10.9401,3.75,12.0901-1.67
		C1097.42,1127.87,1092.17,1122.89,1087.28,1124.5 M1140.37,1124.61c-5.22,1.13-6.33,9.11-1.84,11.8101
		c4.02,3.1,10.86-0.1901,10.45-5.4301C1149.38,1126.54,1144.48,1123.1,1140.37,1124.61 M1193.46,1124.55
		c-5.08,1.24-6.4399,9.1-1.9099,11.7899c3.6799,2.9,10.0299,0.52,10.49-4.2799C1203.17,1127.29,1198,1122.96,1193.46,1124.55
		 M1246.4,1124.59c-5.05,1.41-6.11,8.9-1.8201,11.78c3.7301,2.83,10.0601,0.54,10.54-4.27
		C1256.36,1127.25,1250.96,1122.85,1246.4,1124.59 M1299.45,1124.65c-5.26,1.39-5.95,9.62-1.1899,12.0499
		c3.79,2.39,9.5-0.0599,9.98-4.63C1309.38,1127.22,1304,1122.84,1299.45,1124.65 M1352.42,1124.64
		c-4.0601,1.3199-5.5,6.58-3.25,10.04c2.6499,4.5599,10.7,3.5199,11.9299-1.6901C1363.1,1127.92,1357.35,1122.66,1352.42,1124.64
		 M820.27,1125.23c-4.53,2.39-4.05,10.01,0.75,11.78c4.17,2.16,9.63-1.3101,9.45-6C830.7,1125.9301,824.53,1122.49,820.27,1125.23
		 M1404.3101,1125.24c-4.42,2.52-3.9501,9.79,0.72,11.76c4.5,2.45,10.47-2,9.46-7
		C1413.9301,1125.36,1408.22,1122.7,1404.3101,1125.24 M688.33,1151.4c-5.23,1.8199-5.23,10.34-0.03,12.23
		c4.76,2.37,10.75-2.4401,9.22-7.6C696.88,1151.91,691.99,1149.77,688.33,1151.4 M741.31,1151.46c-5.14,1.86-5.06,10.16-0.05,12.13
		c4.03,1.9601,9.49-0.98,9.48-5.59C751.48,1153.08,745.66,1149.17,741.31,1151.46 M794.31,1151.52
		c-4.75,1.89-5.02,9.2999-0.58,11.73c3.99,2.71,10.06-0.46,10.14-5.26C804.53,1153.05,798.63,1149.1899,794.31,1151.52
		 M848.15,1151.22c-4.36,1.24-5.92,7.12-3.03,10.54c2.97,4.05,10.09,2.78,11.48-2.05C858.68,1154.73,853.14,1149.16,848.15,1151.22
		 M901.19,1151.24c-4.52,1.36-6.03,7.89-2.42,11.02c3.13,3.41,9.53,2.04,10.9-2.4301
		C911.86,1154.86,906.22,1149.0699,901.19,1151.24 M954.16,1151.28c-4.1299,1.27-5.74,7.12-2.85,10.36
		c2.67,3.85,9.3,3.15,11.17-1.15C965.44,1155.48,959.5,1148.83,954.16,1151.28 M1007.17,1151.29c-4.88,1.62-5.62,9.22-1.18,11.7899
		c3.95,2.88,10.22-0.13,10.27-5.08C1016.9,1153.25,1011.5,1149.37,1007.17,1151.29 M1060.23,1151.33
		c-4.0599,1.39-5.45,6.9801-2.8199,10.27c2.8199,3.9401,10.09,3.22,11.5-1.64C1071.41,1154.8199,1065.36,1148.83,1060.23,1151.33
		 M1113.29,1151.3199c-5.4701,1.8-5.42,10.42-0.0701,12.3501c4.78,2.4099,10.4401-2.67,9.13-7.6801
		C1121.66,1151.96,1116.91,1149.83,1113.29,1151.3199 M1166.34,1151.34c-5.01,1.7001-5.5399,9.6801-0.72,11.9501
		c4.33,2.83,10.61-1.0701,9.97-6.2101C1175.59,1152.52,1170.35,1149.5699,1166.34,1151.34 M1219.36,1151.39
		c-5.66,1.7999-5.09,11.25,0.6901,12.49c4.6899,1.66,9.85-3.03,8.45-7.85C1227.88,1151.9,1223.02,1149.8,1219.36,1151.39
		 M1272.3101,1151.46c-5.4501,1.92-4.88,11.0801,0.71,12.4c4.34,1.5601,9.35-2.23,8.72-6.87
		C1281.67,1152.4301,1276.3101,1149.4399,1272.3101,1151.46 M1325.4,1151.45c-4.29,1.66-5.13,7.9701-1.8,10.9801
		c3.51,3.4199,10.34,1.48,11.16-3.4901C1336.17,1153.76,1330.14,1148.97,1325.4,1151.45 M1378.42,1151.51
		c-4.8,1.84-4.9701,9.28-0.62,11.71c3.9199,2.7101,10.0599-0.37,10.1399-5.15C1388.71,1153.12,1382.74,1149.13,1378.42,1151.51
		 M1432.24,1151.21c-4.61,1.29-6.09,7.8401-2.52,11.01c3.3301,3.8401,10.3101,1.7001,11.2001-3.22
		C1442.28,1154.13,1436.95,1149.3,1432.24,1151.21 M928.37,1177.5601c-4.68,0.7999-6.68,7.21-3.6,10.72
		c3.08,4.2999,10.93,2.59,11.71-2.74C937.75,1180.91,932.94,1176.27,928.37,1177.5601 M1087.4399,1177.61
		c-4.7,1.0601-6.5,7.63-3.08,10.99c3.13,3.87,10.11,2.16,11.3201-2.61C1097.35,1181.22,1092.24,1175.96,1087.4399,1177.61
		 M714.21,1178.23c-4.58,2.35-4.26,10.04,0.57,11.96c3.92,1.8201,8.98-0.83,9.41-5.1899
		C725.26,1179.67,718.78,1175.41,714.21,1178.23 M767.27,1178.27c-4.53,2.4299-4.19,10.11,0.7,11.9399
		c4.2,2.01,9.6201-1.5,9.42-6.1699C777.55,1179.04,771.49,1175.58,767.27,1178.27 M820.35,1178.33
		c-4.75,2.5-4.02,10.3501,1.08,12.01c4.59,2.02,9.96-2.62,8.94-7.37C829.77,1178.4301,824.19,1175.79,820.35,1178.33
		 M873.34,1178.41c-4.56,2.5299-3.94,10.27,1.12,11.84c4.86,2.36,10.74-3.24,8.79-8.17C882.13,1178,876.85,1175.98,873.34,1178.41
		 M979.37,1178.46c-3.65,2.24-4.09,8.11-0.58,10.6801c3.63,3.54,10.57,0.84,10.89-4.23
		C990.61,1179.54,983.78,1175.13,979.37,1178.46 M1032.34,1178.49c-3.4299,2.4301-3.95,7.99-0.52,10.67
		c3.9301,3.7999,11.3501,0.37,11.03-5.1C1043.08,1178.87,1036.51,1175.41,1032.34,1178.49 M1139.12,1178.2
		c-5.37,2.54-3.98,11.54,1.87,12.41c4.78,1.29,9.34-3.85,7.77-8.4299C1147.77,1178.14,1142.66,1176.08,1139.12,1178.2
		 M1192.1899,1178.2c-5.0099,2.51-4.23,10.7101,1.15,12.26c4.62,1.64,9.77-2.75,8.65-7.5499
		C1201.54,1178.4,1195.95,1176.01,1192.1899,1178.2 M1245.2,1178.29c-4.38,2.21-4.4199,9.39,0.01,11.5699
		c4.16,2.6801,10.3401-0.89,10.0601-5.85C1255.52,1178.99,1249.34,1175.62,1245.2,1178.29 M1297.48,1178.74
		c-3.74,2.83-3.14,9.84,1.5,11.4301c4.51,2.2999,10.35-2.17,9.25-7.14C1307.77,1178.0601,1301.25,1175.7,1297.48,1178.74
		 M1352.09,1177.9301c-5.09,1.9199-5.25,10.0399-0.27,12.1799c4.2401,2.25,9.8601-1.34,9.63-6.11
		C1361.67,1179.37,1356.2,1175.91,1352.09,1177.9301 M1404.37,1178.36c-4.17,2.3101-4.21,9.02-0.05,11.36
		c3.9,2.7101,9.77-0.09,10.1901-4.8099C1415.45,1179.5699,1408.84,1175.29,1404.37,1178.36 M688.27,1204.47
		c-4.73,1.9-5.28,9.48-0.7,11.86c3.7,2.5,9.4,0.03,9.99-4.45C698.9,1206.71,692.98,1202.28,688.27,1204.47 M741.33,1204.46
		c-4.66,1.91-5.33,9.42-0.75,11.8401c4.43,3.0599,11.08-1.13,10.18-6.4401C750.48,1205.37,745.33,1202.67,741.33,1204.46
		 M795.11,1204.33c-4.96,1.25-6.19,8.5601-2.12,11.55c3.67,3.04,9.94,0.85,10.77-3.87
		C805.03,1207.1801,799.79,1202.46,795.11,1204.33 M848.15,1204.3101c-3.94,1.2699-5.88,6.5099-3.45,9.96
		c2.64,4.51,10.47,3.6899,11.94-1.42C858.65,1207.8199,853.18,1202.35,848.15,1204.3101 M901.21,1204.3199
		c-4.51,1.4301-6.06,7.8201-2.5,11.04c3.22,3.47,9.59,1.99,11-2.52C911.9,1207.85,906.21,1202.27,901.21,1204.3199
		 M954.23,1204.3199c-4.99,1.62-5.94,9.13-1.46,11.89c3.68,2.61,9.52,0.3201,10.22-4.1899
		C964.46,1207.15,958.87,1202.42,954.23,1204.3199 M1007.25,1204.36c-3.45,1.25-5.46,5.76-3.63,9.0701
		c1.19,2.85,4.46,4.4099,7.46,3.7799c3.66-0.75,6.06-4.71,4.97-8.2899C1015.3,1205.08,1010.79,1202.95,1007.25,1204.36
		 M1060.24,1204.45c-5.49,1.63-5.52,10.53-0.0699,12.3c4.7699,2.42,10.64-2.7,9.0199-7.74
		C1068.4,1205.0699,1063.86,1203.02,1060.24,1204.45 M1113.36,1204.42c-4.91,1.5499-5.64,9.0299-1.35,11.6899
		c3.64,2.71,9.74,0.52,10.3199-4.14C1123.66,1207,1118.02,1202.3101,1113.36,1204.42 M1166.3101,1204.41
		c-5.3301,1.86-5.4,10.4399-0.04,12.3199c4.72,2.4401,10.8199-2.65,9.12-7.75C1174.66,1204.9,1169.95,1203.02,1166.3101,1204.41
		 M1219.37,1204.47c-4.97,1.7101-5.42,9.5601-0.76,11.89c4.0701,2.58,10.08-0.4399,10.0701-5.35
		C1229.26,1206.09,1223.76,1202.52,1219.37,1204.47 M1272.25,1204.5c-4.97,2.04-5.05,10.23,0.0601,12.16
		c4.6699,2.48,10.71-2.24,9.35-7.38C1281.0601,1204.95,1276.03,1202.92,1272.25,1204.5 M1326.15,1204.26
		c-5.54,1.35-6.25,10.26-0.91,12.35c4.05,2.17,9.52-0.9299,9.63-5.54C1335.47,1206.46,1330.4399,1202.72,1326.15,1204.26
		 M715.06,1231.01c-5.6,1.85-5.37,10.87,0.26,12.5c4.99,2.03,10.62-3.52,8.58-8.5C722.94,1231.34,718.42,1229.5601,715.06,1231.01
		 M767.33,1231.38c-4.85,2.42-4.12,10.4301,0.98,12.14c4.61,1.78,10.05-2.65,8.95-7.53C776.75,1231.46,771.1,1229.16,767.33,1231.38
		 M820.31,1231.45c-4.62,2.5901-4.1,10.4701,1.12,12.02c4.66,1.88,10.04-2.61,8.89-7.51
		C829.82,1231.42,824.02,1229.0699,820.31,1231.45 M873.39,1231.49c-4.7,2.5-3.96,10.51,1.22,11.98c4.55,1.85,9.88-2.6,8.87-7.4
		C882.94,1231.54,877.15,1228.97,873.39,1231.49 M926.34,1231.52c-3.71,2.24-4.11,8.1799-0.63,10.84
		c3.73,3.3101,10.69,0.8,10.89-4.39C937.58,1232.54,930.76,1228.46,926.34,1231.52 M980.23,1231.14c-4.67,1.83-5.15,9-0.9,11.5699
		c3.82,2.86,9.95,0.11,10.36-4.6499C990.59,1233.0699,984.76,1228.74,980.23,1231.14 M1033.1899,1231.1801
		c-4.1899,1.8199-4.9199,8.11-1.4199,10.98c3.5599,3.5599,10.66,1.09,11-4.03C1043.75,1233.03,1037.73,1228.65,1033.1899,1231.1801
		 M1086.23,1231.29c-3.9299,1.58-4.95,7.4199-1.89,10.34c3.0901,3.92,10.3,2.39,11.36-2.58
		C1097.5699,1233.7,1091.12,1228.38,1086.23,1231.29 M1139.26,1231.28c-5.61,2.27-4.13,11.76,1.8099,12.4399
		c4.0601,0.99,8.3201-2.51,7.91-6.71C1149.2,1232.2,1143.37,1228.9,1139.26,1231.28 M1192.3199,1231.3
		c-5.5,2.38-4.1699,11.46,1.6901,12.38c4.51,1.3199,9.12-3.25,7.99-7.7401C1201.5699,1231.53,1196,1229.12,1192.3199,1231.3
		 M689.19,1257.29c-4.6,1.0499-6.41,7.33-3.25,10.7899c3.07,4.01,10.36,2.53,11.52-2.4299
		C699.09,1260.78,694.03,1255.76,689.19,1257.29 M742.24,1257.35c-5.11,1.11-6.5,8.63-2.29,11.64c4.23,3.85,11.78-0.41,10.81-5.98
		C750.54,1258.92,746.05,1256.1,742.24,1257.35 M796.15,1257.16c-4.66,0.5599-7.2,6.38-4.55,10.23
		c2.56,4.47,9.9901,3.75,11.79-1.0601C805.63,1261.74,801.15,1256,796.15,1257.16 M848.2,1257.36c-4.83,1.38-6.19,8.54-2.16,11.5601
		c3.61,3.25,10.08,0.9299,10.85-3.86C858.1,1260.17,852.9,1255.67,848.2,1257.36 M901.28,1257.38c-4.26,1.34-5.94,7.03-3.2,10.54
		c3.11,4.3099,11.15,2.7,11.82-2.77C911.35,1260.22,905.96,1255.64,901.28,1257.38 M954.24,1257.39c-4.68,1.52-5.93,8.46-2.06,11.51
		c3.32,2.9299,9.35,1.48,10.6-2.89C965.01,1260.96,959.27,1255.45,954.24,1257.39 M1007.29,1257.41
		c-4.4,1.49-5.62,7.5699-2.6,10.9399c3.35,3.86,10.76,1.98,11.44-3.24C1017.5,1260.1,1011.96,1255.65,1007.29,1257.41
		 M1060.25,1257.47c-4.5601,1.52-5.72,8.29-1.9301,11.25c3.42,3.49,10.42,1.26,10.9401-3.71
		C1070.53,1260.04,1064.91,1255.52,1060.25,1257.47 M714.33,1284.49c-5.32,2.45-4.07,11.38,1.72,12.28
		c4.88,1.39,9.92-4.0801,7.78-8.78C722.74,1284.12,717.66,1282.48,714.33,1284.49 M767.37,1284.52c-4.56,2.26-4.39,9.79,0.33,11.76
		c4.26,2.1899,10.13-1.3,9.67-6.23C777.46,1285.15,771.44,1281.92,767.37,1284.52 M820.33,1284.54
		c-4.62,2.5-4.19,10.3099,0.94,11.9399c4.32,1.88,9.67-1.8099,9.16-6.54C830.47,1284.97,824.45,1282,820.33,1284.54 M873.43,1284.53
		c-4.35,2.4199-4.24,9.7,0.4,11.75c4.29,2.2999,10.17-1.28,9.72-6.24C883.57,1285.0601,877.59,1281.87,873.43,1284.53
		 M927.14,1284.26c-3.52,1.48-4.97,6.29-2.93,9.52c2.59,4.9,11.32,3.8099,12.25-1.8201
		C938.1,1286.6801,931.96,1281.75,927.14,1284.26 M980.16,1284.27c-4.49,1.89-5.2,9.0699-0.85,11.53
		c3.84,2.7999,10.21,0.21,10.38-4.74C990.49,1286.02,984.7,1281.89,980.16,1284.27 M688.47,1310.7c-4.73,1.5-5.49,8.6001-1.53,11.39
		c3.94,3.5,10.9,0.24,10.76-5.0399C698.02,1312.3,692.76,1308.78,688.47,1310.7 M741.51,1310.71c-5.17,1.8301-5.35,9.98-0.35,12.11
		c4.5,2.6001,10.55-1.8999,9.57-6.9199C750.38,1311.59,745.34,1309.0601,741.51,1310.71 M795.32,1310.46
		c-4.46,1.0701-6.37,7.25-3.23,10.64c3.36,4.91,12.11,1.77,11.79-4.11C804.23,1312.52,799.48,1309.12,795.32,1310.46
		 M848.32,1310.47c-4.94,1.25-6.38,8.47-2.32,11.53c3.65,3.21,10.28,1.05,10.88-3.91C858.1,1313.25,852.91,1308.9,848.32,1310.47
		 M714.4,1337.59c-4.7401,2.2101-4.53,9.76,0.25,11.8c4.6,2.84,11.04-2.33,9.45-7.46C723.33,1337.6801,718.08,1335.28,714.4,1337.59
		z"/>
	<path fill="#8C9299" d="M1454.55,810.41c1.1-2.19,2.63-4.14,3.5299-6.44c-0.0299,0.84-0.09,2.52-0.11,3.35
		c-0.5599,5.53-0.28,11.09-0.7899,16.63c-0.0901-2.16,0.25-4.47-0.79-6.43C1455.33,815.31,1453.52,812.97,1454.55,810.41z"/>
	<path fill="#909193" d="M1401.36,808.83c3.96-0.76,7.88-1.72,11.84-2.56c0.51,3.07,2.1801,6.43,0.41,9.38
		c-2.12,3.97-8.33,4.27-11.03,0.79C1400.79,814.32,1401.5,811.35,1401.36,808.83z"/>
	<path fill="#909193" d="M1379.22,832.43c4.63-1.68,9.8,2.74,8.65,7.59c-0.59,5.51-8.6899,7.37-11.83,2.97
		C1373.1801,839.51,1374.92,833.73,1379.22,832.43z"/>
	<path fill="#909193" d="M1059.3199,939.26c3.51-2.24,8.7401-0.29,9.7401,3.81c1.87,4.97-3.65,10.25-8.5701,8.32
		C1055.1899,949.9,1054.52,941.76,1059.3199,939.26z"/>
	<path fill="#909193" d="M874.26,965.37c3.66-1.31,8.38,0.53,9.08,4.64c1.55,5.08-4.3701,10.21-9.1801,7.71
		C868.77,975.78,869.08,967.31,874.26,965.37z"/>
	<path fill="#909193" d="M981.12,965.26c4.24-1.57,9.15,2.28,8.61,6.79c0.07,5.47-7.61,8.28-11.28,4.41
		C974.84,973.2,976.18,966.34,981.12,965.26z"/>
	<path fill="#909193" d="M1033.38,965.52c4.3099-2.24,10.04,1.71,9.4301,6.54c-0.04,4.66-5.79,7.79-9.79,5.47
		C1028.3,975.28,1028.29,967.32,1033.38,965.52z"/>
	<path fill="#909193" d="M1271.39,992.57c4.1-2.92,10.64,0.32,10.39,5.46c0.28,4.62-4.9,8.23-9.13,6.27
		C1267.65,1002.72,1267.04,995.25,1271.39,992.57z"/>
	<path fill="#909193" d="M1378.1801,992.2c4.5699-2.56,10.7599,1.59,9.7,6.85c-0.22,5.22-7.41,7.62-11.01,4.07
		C1373.26,1000.38,1374.21,994.1,1378.1801,992.2z"/>
	<path fill="#909193" d="M688.09,1045.26c4.85-2.72,11.11,2.48,9.35,7.72c-0.85,4.89-7.4,6.35-10.91,3.36
		C683.1,1053.37,683.94,1047.13,688.09,1045.26z"/>
	<path fill="#909193" d="M953.27,1045.38c4.18-2.45,9.99,0.74,9.95,5.64c0.46,5.14-5.87,8.6-10.14,6.04
		C948.77,1054.7,948.85,1047.5699,953.27,1045.38z"/>
	<path fill="#909193" d="M1272.1801,1045.24c4.85-2.67,11.1599,2.48,9.36,7.76c-0.89,4.78-7.3501,6.4-10.8201,3.37
		C1267.15,1053.48,1267.96,1047.09,1272.1801,1045.24z"/>
	<path fill="#909193" d="M1377.49,1045.66c3.5601-2.3401,8.99-0.6801,10.1801,3.5399c1.85,4.88-3.4,10.38-8.3501,8.38
		C1374.01,1056.36,1373.0601,1048.51,1377.49,1045.66z"/>
	<path fill="#909193" d="M1431.3,1045.35c4.8199-2.88,11.4399,2.3301,9.51,7.6801c-0.8101,4.47-7.05,6.45-10.42,3.5499
		C1426.48,1053.99,1426.96,1047.24,1431.3,1045.35z"/>
	<path fill="#909193" d="M768.41,1071.52c4.98-2.03,10.63,3.4199,8.61,8.45c-1.13,4.26-7,5.9401-10.35,3.22
		C762.47,1080.41,763.53,1072.95,768.41,1071.52z"/>
	<path fill="#909193" d="M875.21,1071.36c5.27-1.72,10.44,4.75,7.6,9.49c-1.88,4.14-8.2,4.99-10.98,1.34
		C868.63,1078.7,870.46,1072.28,875.21,1071.36z"/>
	<path fill="#909193" d="M928.21,1071.38c4.11-1.22,8.77,2.25,8.42,6.62c0.22,5.21-6.8,8.5601-10.73,5.13
		C921.55,1080.12,922.95,1072.48,928.21,1071.38z"/>
	<path fill="#909193" d="M1034.26,1071.42c4.5599-1.52,9.66,2.86,8.47,7.61c-0.6799,5.12-7.84,7.33-11.2999,3.51
		C1027.8,1079.25,1029.5,1072.54,1034.26,1071.42z"/>
	<path fill="#909193" d="M1405.41,1071.59c4.25-1.74,9.5699,1.78,9.14,6.49c0.1,4.9401-6.16,8.2201-10.2001,5.4501
		C1399.83,1080.96,1400.3,1073.16,1405.41,1071.59z"/>
	<path fill="#909193" d="M874.46,1124.6899c4.5099-1.9199,10.05,2.4501,9.0099,7.3101c-0.48,4.88-7.04,7.3-10.72,4.22
		C868.77,1133.3,869.69,1126.25,874.46,1124.6899z"/>
	<path fill="#909193" d="M927.42,1124.6899c4.54-1.98,10.13,2.27,9.17,7.2101c-0.46,4.96-7.03,7.47-10.76,4.28
		C921.83,1133.25,922.83,1126.49,927.42,1124.6899z"/>
	<path fill="#909193" d="M1193.46,1124.55c4.54-1.5901,9.7101,2.74,8.5801,7.51c-0.4601,4.7999-6.8101,7.1799-10.49,4.2799
		C1187.02,1133.65,1188.38,1125.79,1193.46,1124.55z"/>
	<path fill="#909193" d="M741.31,1151.46c4.35-2.2899,10.17,1.62,9.43,6.54c0.01,4.61-5.45,7.55-9.48,5.59
		C736.25,1161.62,736.17,1153.3199,741.31,1151.46z"/>
	<path fill="#909193" d="M1007.17,1151.29c4.33-1.92,9.73,1.96,9.09,6.71c-0.05,4.95-6.32,7.96-10.27,5.08
		C1001.55,1160.51,1002.29,1152.91,1007.17,1151.29z"/>
	<path fill="#909193" d="M1325.4,1151.45c4.74-2.48,10.77,2.3101,9.36,7.49c-0.8201,4.9701-7.65,6.91-11.16,3.4901
		C1320.27,1159.42,1321.11,1153.11,1325.4,1151.45z"/>
	<path fill="#909193" d="M979.37,1178.46c4.41-3.33,11.24,1.0801,10.31,6.4501c-0.32,5.0699-7.26,7.77-10.89,4.23
		C975.28,1186.5699,975.72,1180.7,979.37,1178.46z"/>
	<path fill="#909193" d="M1297.48,1178.74c3.77-3.04,10.29-0.6799,10.75,4.29c1.1,4.97-4.74,9.4399-9.25,7.14
		C1294.34,1188.58,1293.74,1181.5699,1297.48,1178.74z"/>
	<path fill="#909193" d="M688.27,1204.47c4.71-2.1899,10.63,2.24,9.29,7.41c-0.59,4.48-6.29,6.95-9.99,4.45
		C682.99,1213.95,683.54,1206.37,688.27,1204.47z"/>
	<path fill="#909193" d="M848.15,1204.3101c5.03-1.9601,10.5,3.5099,8.49,8.5399c-1.47,5.11-9.3,5.9301-11.94,1.42
		C842.27,1210.8199,844.21,1205.58,848.15,1204.3101z"/>
	<path fill="#909193" d="M954.23,1204.3199c4.64-1.8999,10.23,2.8301,8.76,7.7001c-0.7,4.51-6.54,6.7999-10.22,4.1899
		C948.29,1213.45,949.24,1205.9399,954.23,1204.3199z"/>
	<path fill="#909193" d="M1113.36,1204.42c4.66-2.11,10.3,2.58,8.97,7.5499c-0.58,4.66-6.6799,6.85-10.3199,4.14
		C1107.72,1213.45,1108.45,1205.97,1113.36,1204.42z"/>
	<path fill="#909193" d="M873.39,1231.49c3.76-2.52,9.55,0.05,10.09,4.58c1.01,4.8-4.32,9.25-8.87,7.4
		C869.43,1242,868.69,1233.99,873.39,1231.49z"/>
	<path fill="#909193" d="M926.34,1231.52c4.42-3.0601,11.24,1.02,10.2599,6.45c-0.2,5.1901-7.16,7.7001-10.89,4.39
		C922.23,1239.7,922.63,1233.76,926.34,1231.52z"/>
	<path fill="#909193" d="M901.28,1257.38c4.68-1.74,10.0699,2.84,8.62,7.77c-0.67,5.47-8.71,7.08-11.82,2.77
		C895.34,1264.41,897.02,1258.72,901.28,1257.38z"/>
	<path fill="#909193" d="M820.33,1284.54c4.12-2.54,10.14,0.4299,10.1,5.3999c0.51,4.7301-4.84,8.42-9.16,6.54
		C816.14,1294.85,815.71,1287.04,820.33,1284.54z"/>
	<path fill="#909193" d="M873.43,1284.53c4.16-2.66,10.14,0.53,10.12,5.51c0.45,4.96-5.43,8.5399-9.72,6.24
		C869.19,1294.23,869.08,1286.95,873.43,1284.53z"/>
	<path fill="#909193" d="M927.14,1284.26c4.82-2.51,10.96,2.42,9.32,7.7c-0.93,5.63-9.66,6.7201-12.25,1.8201
		C922.17,1290.55,923.62,1285.74,927.14,1284.26z"/>
	<path fill="#909193" d="M688.47,1310.7c4.29-1.9199,9.55,1.6001,9.23,6.3501c0.14,5.2799-6.82,8.5399-10.76,5.0399
		C682.98,1319.3,683.74,1312.2,688.47,1310.7z"/>
	<path fill="#909193" d="M764.33,1341.29c1.26-4.17,6.88-6,10.3-3.2101c2.88,1.7001,2.61,5.3401,2.82,8.25l0.01,0.2301
		c-3.89,0.58-7.69,1.5499-11.4901,2.5399C764.93,1346.65,763.36,1344.01,764.33,1341.29z"/>
	<path fill="#4E77B7" d="M485.26,813.45c1.76,0.47,3.37,1.36,4.94,2.29c11.61,6.78,23.45,13.2,35.03,20.04
		c-0.42,3.23-0.18,7.22,3.13,8.89c3.22,1.99,6.79,0.13,9.44-1.89c38.58,22.06,77.24,43.98,115.87,65.9399
		c0.48,0.25,0.97,0.51,1.48,0.78l0.1,0.05c-0.28,4.16,0.06,8.32,0.32,12.48c0.85,15.42,1.94,30.8199,2.59,46.25
		c-0.0099,0.4-0.03,1.1899-0.04,1.59c-0.45,1.38-0.47,2.78-0.04,4.18c0.1,0.44,0.3,1.32,0.4,1.77c1.26,14.1,1.96,28.27,2.45,42.43
		c0.53-0.01,1.58-0.04,2.1-0.06c-0.44,0.16-1.34,0.47-1.79,0.62c-1.99,1.42-3.81,3.56-3.46,6.2c-0.05,2.8099,2.3,4.61,4.08,6.4399
		c1.03,13.0601,1.56,26.16,2.3,39.24c-2.86,1.0701-6.06,2.79-6.3,6.2401c-0.88,4.34,3.18,7.48,7.1,7.8999l0.02,0.27
		c1.1,13.0601,1.44,26.17,2.43,39.24c-2.54,0.04-5.49-0.36-7.45,1.65c-3.38,2.79-2.73,8.9301,1.3,10.8c2.03,1.22,4.47,0.5,6.7,0.49
		c0.81,9.59,1.32,19.21,1.81,28.8199c0.34,4.4,0.94,8.86,0.03,13.25c-2.98-2.22-7.57-2.9399-10.23,0.16
		c-3.69,3.5-1.41,10.33,3.54,11.13c3.23,0.87,5.8-1.5,7.88-3.59c3.21,53.2999,6.22,106.6,9.38,159.8999
		c0.08,6.41,1.36,12.8301,0.32,19.2301c-4.08-5.77-7.27-12.1101-10.82-18.2001c0.93-2.35,2.01-5.01,0.65-7.41
		c-1.23-2.9099-4.41-3.8999-7.3-4.0099c-17.96-30.8601-35.7-61.8301-53.67-92.6801c2.72,0.08,5.91-0.41,7.41-2.99
		c2.66-3.96,0.0099-10.23-4.98-10.33c-3.37-0.52-5.79,2.08-7.51,4.5699c-3.89-6.96-7.95-13.8199-11.97-20.71
		c-1.22-1.9-0.95-4.26-1.46-6.3501c-1.13-2.75-4.56-3.5299-5.79-6.23c-17.37-30.27-35.04-60.37-52.34-90.6799
		c4.4-1.14,7.2401-6.5801,4.3701-10.51c-2.42-3.9601-7.83-3.38-11.04-0.75c-9.23-16.42-18.99-32.54-28.14-48.99
		c-1.2-9.24-1.09-18.6901-1.75-28.01C492.6,953.09,489.06,883.26,485.26,813.45 M502.25,859.32c-4.45,1.98-5.11,8.89-0.91,11.52
		c3.85,3.03,10.3,0.15,10.51-4.78C512.63,861.1,506.66,856.91,502.25,859.32 M555.26,859.38c-4.37,1.91-4.94,8.74-0.94,11.35
		c3.82,3.06,10.55,0.33,10.58-4.76C565.68,860.99,559.62,856.87,555.26,859.38 M529.44,885.65c-4.9,1.45-5.9,8.79-1.75,11.65
		c3.73,2.96,10.05,0.55,10.64-4.25C539.34,888.23,534.03,883.67,529.44,885.65 M582.45,885.65c-4.76,1.5099-5.9,8.75-1.69,11.55
		c3.69,3.22,10.13,0.56,10.7-4.24C592.4,888.13,587.01,883.71,582.45,885.65 M502.32,912.41c-4.2,1.75-5.17,7.97-1.72,10.96
		c3.46,3.48,10.21,1.55,11.11-3.35C513.23,914.8,507.1,909.93,502.32,912.41 M555.35,912.45c-4.7,2.07-4.98,9.4-0.44,11.81
		c3.9301,2.56,9.9-0.47,10.01-5.2C565.62,914.1,559.77,910.06,555.35,912.45 M608.34,912.51c-4.82,2.22-4.76,9.66-0.03,11.93
		c4.39,2.53,10.37-1.49,9.65-6.49C617.92,913.3,612.35,910.31,608.34,912.51 M528.3,939.27c-4.58,2.38-4.14,10.1,0.73,11.9
		c4.22,2.07,9.5-1.54,9.4-6.16C538.63,940.01,532.52,936.6,528.3,939.27 M581.36,939.29c-4.22,2.36-4.25,9.11-0.01,11.45
		c4.14,2.87,10.4301-0.72,10.17-5.72C591.78,940,585.51,936.53,581.36,939.29 M634.39,939.36c-4.11,2.28-4.17,8.96-0.06,11.27
		c4.13,3.08,10.63-0.59,10.3-5.67C644.78,939.93,638.54,936.56,634.39,939.36 M502.32,965.51c-4.74,1.94-5.13,9.36-0.63,11.8
		c3.99,2.59,10.14-0.38,10.15-5.26C512.48,967.04,506.75,963.47,502.32,965.51 M557.06,965.11c-5.54,0.52-7.39,8.62-2.93,11.75
		c3.58,3.04,9.98,0.84,10.67-3.88C566.01,968.5,561.55,964.02,557.06,965.11 M608.42,965.53c-4.49,2.06-5.04,9.18-0.71,11.72
		c4.34,3.03,11.23-0.89,10.23-6.28C617.87,966.28,612.45,963.69,608.42,965.53 M528.29,992.42c-4.75,2.49-4.07,10.56,1.18,12.01
		c4.95,2.17,10.51-3.39,8.6-8.33C537,992.05,531.77,990.17,528.29,992.42 M581.35,992.43c-4.12,2.31-4.31,9.03-0.08,11.35
		c3.87,2.77,9.82-0.1,10.21-4.82C592.42,993.66,585.78,989.42,581.35,992.43 M634.39,992.44c-3.8,2.24-4.27,8.15-0.74,10.86
		c3.69,3.4,10.63,0.78,10.89-4.32C645.6,993.62,638.8,989.41,634.39,992.44 M503.27,1018.34c-4.26,1-6.25,6.59-3.64,10.09
		c2.42,4.1399,9.22,3.88,11.35-0.42C514.18,1023.14,508.77,1016.31,503.27,1018.34 M555.42,1018.66
		c-4.95,1.98-5.07,9.85-0.22,12.0201c4.48,2.5699,10.65-1.7001,9.68-6.8101C564.63,1019.41,559.32,1016.72,555.42,1018.66
		 M608.44,1018.66c-4.81,2.13-4.96,9.73-0.21,12.0101c4.49,2.58,10.68-1.61,9.69-6.7601
		C617.8,1019.37,612.33,1016.74,608.44,1018.66 M528.33,1045.47c-4.21,2.25-4.36,9.0601-0.21,11.4401
		c3.95,2.64,9.98-0.0901,10.27-4.9301C539.25,1046.7,532.79,1042.66,528.33,1045.47 M581.35,1045.52c-4.44,2.39-4.2,9.85,0.57,11.76
		c4.28,2.26,10.06-1.4,9.59-6.3C591.54,1046.02,585.45,1042.88,581.35,1045.52 M635.15,1045.1899
		c-4.42,1.7001-5.23,8.29-1.56,11.2001c3.5099,3.08,9.87,1.1899,10.8-3.5C646.03,1047.72,639.95,1042.6899,635.15,1045.1899
		 M556.26,1071.45c-5.17,1.3601-6.34,9.1001-1.79,11.91c4.08,3.1,10.66-0.24,10.47-5.35
		C565.32,1073.51,560.47,1069.96,556.26,1071.45 M608.53,1071.73c-4.8101,2.0601-5.1201,9.67-0.39,11.99
		c4.13,2.4501,10.15-0.86,9.83-5.77C618.44,1073.1,612.78,1069.62,608.53,1071.73 M582.16,1098.23c-3.94,1.55-5.3199,7.05-2.6,10.29
		c3.05,4.28,10.83,2.72,11.77-2.5801C592.9,1100.8199,586.94,1095.8199,582.16,1098.23 M635.21,1098.25
		c-4.14,1.6-5.32,7.6-2.19,10.7c3.21,3.8,10.5,2.12,11.4-2.9299C646,1100.8199,640.04,1095.86,635.21,1098.25 M556.43,1124.53
		c-5.03,1.14-6.56,8.46-2.46,11.5399c3.95,3.67,11.34,0.3501,10.96-5.1C565.18,1126.65,560.51,1123.14,556.43,1124.53
		 M609.4,1124.53c-5.07,1.35-6.45,9.0699-1.88,11.85c4.05,3.21,10.88-0.14,10.44-5.39
		C618.33,1126.53,613.52,1123.1899,609.4,1124.53 M582.23,1151.35c-4.77,1.6801-5.5,8.9401-1.26,11.65
		c3.9301,3.03,10.4,0.01,10.52-4.97C592.06,1153.16,586.65,1149.37,582.23,1151.35 M635.23,1151.39
		c-4.72,1.65-5.33,8.85-1.25,11.5499c3.98,3.04,10.57,0.1901,10.64-4.96C645.15,1153.08,639.62,1149.33,635.23,1151.39
		 M608.15,1178.23c-4.27,1.99-4.66,8.74-0.66,11.24c4.02,3.3301,11.08-0.14,10.45-5.48
		C618.34,1179.05,612.27,1175.6899,608.15,1178.23 M635.35,1204.47c-4.74,1.64-5.53,8.8401-1.38,11.5801
		c3.71,2.8199,9.84,0.61,10.53-4.12C645.76,1206.88,640.03,1202.3101,635.35,1204.47 M661.28,1231.3
		c-4.45,2.1399-4.63,9.25-0.25,11.6c4.5099,3.09,11.41-1.52,10.0099-6.88C670.45,1231.62,665.09,1229.08,661.28,1231.3
		 M635.43,1257.53c-4.77,1.62-5.69,8.85-1.45,11.59c3.97,3.3101,10.8,0.01,10.61-5.1801
		C644.96,1259.29,639.67,1255.6,635.43,1257.53 M661.37,1284.38c-3.75,1.75-4.78,7.1801-2,10.23c3.09,4.01,10.43,2.54,11.53-2.49
		C672.82,1286.8199,666.19,1281.38,661.37,1284.38z"/>
	<path fill="#909294" d="M1325.52,832.65c3.89-1.79,9.0699,0.88,9.29,5.3c0.9299,5.07-5.14,9.36-9.65,6.87
		C1320.28,842.48,1320.48,834.69,1325.52,832.65z"/>
	<path fill="#8F9194" d="M1432.37,832.4c5.04-1.85,10.33,3.65,8.35,8.63c-1.27,4.6899-7.98,5.92-11.15,2.4399
		C1426.12,840.18,1427.86,833.72,1432.37,832.4z"/>
	<path fill="#8F9194" d="M1135.33,864.41c4.38-0.91,8.76-1.79,13.15-2.7c0.21,2.62,1.11,5.7599-0.9399,7.92
		c-2.3101,2.91-7.17,3.16-9.76,0.51C1136.05,868.75,1135.96,866.34,1135.33,864.41z"/>
	<path fill="#8F9194" d="M1166.4,885.7c4.1699-1.76,9.63,1.55,9.1899,6.28c0.4301,5.37-6.89,8.64-10.8099,5.18
		C1160.71,894.36,1161.77,887.31,1166.4,885.7z"/>
	<path fill="#8F9194" d="M1059.24,886.24c4.17-2.82,10.38,0.67,10.17,5.7c0.24,5-6.01,8.45-10.14,5.73
		C1055.05,895.43,1055.01,888.5,1059.24,886.24z"/>
	<path fill="#8F9194" d="M980.22,912.4c4.47-2.29,10.13,1.71,9.51,6.67c-0.18,5.05-6.74,7.98-10.65,4.83
		C975.04,921.14,975.71,914.3,980.22,912.4z"/>
	<path fill="#8F9194" d="M1352.21,912.3c4-1.71,9.17,1.19,9.1901,5.71c0.76,5.38-6.22,9.25-10.4501,5.95
		C1346.63,921.31,1347.4301,913.97,1352.21,912.3z"/>
	<path fill="#8F9194" d="M1007.42,938.66c4.55-1.71,9.77,2.57,8.8,7.4c-0.46,5.17-7.56,7.5-11.17,3.92
		C1001.42,946.75,1002.72,940.08,1007.42,938.66z"/>
	<path fill="#8F9194" d="M1112.3101,939.33c4.5399-3.1,11.1399,1.3,10.11,6.64c-0.4601,4.19-5.03,6.91-8.9401,5.36
		C1108.35,949.77,1107.63,941.88,1112.3101,939.33z"/>
	<path fill="#8F9194" d="M1324.42,939.53c4.59-3.76,12.1899,1.62,10.22,7.23c-0.92,5.08-8.09,6.62-11.3201,2.81
		C1320.49,946.77,1321.16,941.7,1324.42,939.53z"/>
	<path fill="#8F9194" d="M715.23,965.36c5-2.2,10.79,3.5,8.68,8.51c-1.39,4.2-7.25,5.79-10.59,2.87
		C709.31,973.83,710.54,966.86,715.23,965.36z"/>
	<path fill="#8F9194" d="M1140.16,965.32c5.02-2.01,10.52,3.46,8.49,8.46c-1.37,5.1-9.29,5.99-11.9,1.49
		C1134.39,971.82,1136.13,966.54,1140.16,965.32z"/>
	<path fill="#8F9194" d="M1246.1,965.35c4.7101-2.02,10.42,2.62,9,7.67c-0.7999,4.74-7.1799,6.96-10.74,3.71
		C1240.37,973.84,1241.5601,967.01,1246.1,965.35z"/>
	<path fill="#8F9194" d="M953.27,992.32c4.56-2.77,10.81,1.45,9.95,6.69c-0.53,4.67-6.28,7.4-10.23,4.89
		C948.78,1001.47,948.85,994.47,953.27,992.32z"/>
	<path fill="#8F9194" d="M1006.32,992.35c4.1-2.52,10.2,0.6801,9.97,5.63c0.37,4.8-5.24,8.37-9.49,6.26
		C1002.02,1002.35,1001.68,994.56,1006.32,992.35z"/>
	<path fill="#8F9194" d="M1059.34,992.36c3.4601-2.06,8.6801-0.35,9.7101,3.71c1.8899,4.62-2.9801,9.92-7.76,8.58
		C1055.4,1003.9,1054.2,995,1059.34,992.36z"/>
	<path fill="#8F9194" d="M1140.13,1018.3c3.84-1.26,8.67,1.39,8.78,5.65c1,5.07-5.1801,9.3699-9.62,6.69
		C1134.03,1028.37,1134.9,1020.07,1140.13,1018.3z"/>
	<path fill="#8F9194" d="M1193.28,1018.41c5.08-2.23,10.5499,3.64,8.4299,8.57c-1.3199,4.91-8.7799,5.99-11.5299,1.8
		C1187.3,1025.38,1189.0601,1019.68,1193.28,1018.41z"/>
	<path fill="#8F9194" d="M1352.29,1018.38c3.89-1.42,8.9399,1.28,9.1,5.64c0.79,4.96-4.91,9.09-9.38,6.77
		C1346.65,1028.73,1347.02,1020.3,1352.29,1018.38z"/>
	<path fill="#8F9194" d="M794.2,1045.29c4.45-2.49,10.49,1.72,9.64,6.75c-0.06,5.01-6.67,7.48-10.48,4.7
		C789.31,1054.17,789.76,1047.17,794.2,1045.29z"/>
	<path fill="#8F9194" d="M899.6,1045.6801c3.7-2.4701,9.67-0.4301,10.34,4.1899c1.25,4.5699-3.35,9.03-7.89,7.9
		C896.44,1057.01,894.88,1048.62,899.6,1045.6801z"/>
	<path fill="#8F9194" d="M1059.3199,1045.5601c4.41-2.9801,10.9801,1.1499,10.0601,6.47c-0.27,4.85-6.39,7.46-10.3,4.9
		C1054.97,1054.5601,1055.1,1047.74,1059.3199,1045.5601z"/>
	<path fill="#8F9194" d="M1325.1801,1045.3c4.4199-2.4401,10.5499,1.6399,9.61,6.71c-0.11,5.03-6.5701,7.49-10.4401,4.73
		C1320.3199,1054.15,1320.6899,1047.2,1325.1801,1045.3z"/>
	<path fill="#8F9194" d="M1140.34,1071.45c5.05-1.85,10.3101,3.5901,8.35,8.5801c-1.35,4.73-8.0399,5.96-11.25,2.4299
		C1134.17,1079.09,1135.75,1072.6899,1140.34,1071.45z"/>
	<path fill="#8F9194" d="M1193.35,1071.49c4.9401-2,10.3201,3.42,8.4401,8.33c-1.1901,4.75-8.01,6.3401-11.2201,2.67
		C1187.17,1079.1801,1188.79,1072.76,1193.35,1071.49z"/>
	<path fill="#8F9194" d="M953.32,1098.51c3.19-1.58,7.62-0.7,9.1,2.8c2.66,4.2699-1.46,10.5299-6.47,9.6
		C949.55,1111,947.65,1101.13,953.32,1098.51z"/>
	<path fill="#8F9194" d="M1219.2,1098.3c5.02-2.67,11.3101,3.0299,9.14,8.2799c-1.2,4.24-6.6699,5.5-10.1599,3.39
		C1214.0601,1107.3,1214.5699,1100.14,1219.2,1098.3z"/>
	<path fill="#8F9194" d="M1272.21,1098.29c4.8501-2.5601,11.01,2.46,9.36,7.74c-0.86,5.4099-8.9399,6.7-11.85,2.36
		C1267.2,1105.21,1268.52,1099.9301,1272.21,1098.29z"/>
	<path fill="#8F9194" d="M1113.29,1151.3199c3.62-1.49,8.37,0.64,9.0599,4.67c1.3101,5.01-4.35,10.09-9.13,7.6801
		C1107.87,1161.74,1107.8199,1153.12,1113.29,1151.3199z"/>
	<path fill="#8F9194" d="M1219.36,1151.39c3.66-1.59,8.52,0.51,9.14,4.64c1.4,4.8199-3.76,9.51-8.45,7.85
		C1214.27,1162.64,1213.7,1153.1899,1219.36,1151.39z"/>
	<path fill="#8F9194" d="M1378.42,1151.51c4.3199-2.38,10.2899,1.61,9.5199,6.5599c-0.08,4.78-6.22,7.8601-10.1399,5.15
		C1373.45,1160.79,1373.62,1153.35,1378.42,1151.51z"/>
	<path fill="#8F9194" d="M873.34,1178.41c3.5099-2.4301,8.79-0.41,9.91,3.6699c1.95,4.9301-3.93,10.53-8.79,8.17
		C869.4,1188.6801,868.78,1180.9399,873.34,1178.41z"/>
	<path fill="#8F9194" d="M1032.34,1178.49c4.17-3.08,10.74,0.38,10.51,5.5701c0.3201,5.47-7.1,8.8999-11.03,5.1
		C1028.39,1186.48,1028.91,1180.92,1032.34,1178.49z"/>
	<path fill="#8F9194" d="M1245.2,1178.29c4.14-2.67,10.3201,0.7,10.0701,5.72c0.28,4.96-5.9,8.53-10.0601,5.85
		C1240.78,1187.6801,1240.8199,1180.5,1245.2,1178.29z"/>
	<path fill="#8F9194" d="M1219.37,1204.47c4.39-1.95,9.89,1.62,9.3101,6.54c0.0099,4.91-6,7.9299-10.0701,5.35
		C1213.95,1214.03,1214.4,1206.1801,1219.37,1204.47z"/>
	<path fill="#8F9194" d="M980.23,1231.14c4.53-2.4,10.36,1.9299,9.46,6.92c-0.41,4.7599-6.54,7.5099-10.36,4.6499
		C975.08,1240.14,975.56,1232.97,980.23,1231.14z"/>
	<path fill="#8F9194" d="M1192.3199,1231.3c3.6801-2.1801,9.25,0.23,9.6801,4.6399c1.13,4.4901-3.48,9.0601-7.99,7.7401
		C1188.15,1242.76,1186.8199,1233.6801,1192.3199,1231.3z"/>
	<path fill="#8F9194" d="M796.15,1257.16c5-1.16,9.48,4.58,7.24,9.1699c-1.8,4.8101-9.23,5.53-11.79,1.0601
		C788.95,1263.54,791.49,1257.72,796.15,1257.16z"/>
	<path fill="#8F9194" d="M1007.29,1257.41c4.67-1.76,10.21,2.6899,8.84,7.7c-0.68,5.22-8.09,7.1-11.44,3.24
		C1001.67,1264.98,1002.89,1258.9,1007.29,1257.41z"/>
	<path fill="#8F9292" d="M1267.1801,836.87c4.48-0.95,8.97-1.84,13.45-2.8c0.5599,2.42,1.7,5.04,0.61,7.5
		c-1.66,3.81-7.09,5.22-10.29,2.45c-2.33-1.55-2.23-4.59-2.83-7L1267.1801,836.87z"/>
	<path fill="#8F9292" d="M715.29,1018.48c4.96-2.27,10.67,3.51,8.58,8.46c-1.26,4.64-8.03,5.9801-11.12,2.41
		C709.48,1026.1801,710.76,1019.73,715.29,1018.48z"/>
	<path fill="#8F9292" d="M768.38,1124.66c4.91-2.0701,10.64,3.3099,8.65,8.3199c-1.04,4.38-7.02,5.96-10.46,3.35
		C762.59,1133.39,763.52,1126.16,768.38,1124.66z"/>
	<path fill="#8F9292" d="M820.35,1178.33c3.84-2.5399,9.42,0.1001,10.02,4.64c1.02,4.75-4.35,9.39-8.94,7.37
		C816.33,1188.6801,815.6,1180.83,820.35,1178.33z"/>
	<path fill="#FAFDFF" d="M502.25,859.32c4.41-2.41,10.38,1.78,9.6,6.74c-0.21,4.93-6.66,7.81-10.51,4.78
		C497.14,868.21,497.8,861.3,502.25,859.32z"/>
	<path fill="#FBFEFB" d="M555.26,859.38c4.36-2.51,10.42,1.61,9.64,6.59c-0.03,5.09-6.76,7.82-10.58,4.76
		C550.32,868.12,550.89,861.29,555.26,859.38z"/>
	<path fill="#FBFEFB" d="M659.57,1179.51c2.66-3.1,7.25-2.38,10.23-0.16c1.17,2.4,1.15,5.0801,1.19,7.7001
		c-2.08,2.09-4.65,4.46-7.88,3.59C658.16,1189.84,655.88,1183.01,659.57,1179.51z"/>
	<path fill="#FBFEFB" d="M635.43,1257.53c4.24-1.9301,9.53,1.76,9.16,6.4099c0.19,5.1901-6.64,8.4901-10.61,5.1801
		C629.74,1266.38,630.66,1259.15,635.43,1257.53z"/>
	<path fill="#8F9294" d="M1192.3,859.42c4.84-2.79,11.34,2.18,9.6,7.56c-0.85,5.22-8.47,6.78-11.52,2.64
		C1187.54,866.6,1188.6801,861.24,1192.3,859.42z"/>
	<path fill="#8F9294" d="M741.15,992.14c4.93-2.71,11.21,2.52,9.37,7.83c-0.94,4.35-6.61,6.27-10.13,3.7
		C736.09,1001.19,736.7,994.11,741.15,992.14z"/>
	<path fill="#8F9294" d="M981.35,1124.51c5.01-1.6901,10.09,4.02,7.9301,8.78c-1.4301,4.4399-7.84,5.89-10.9301,2.36
		C974.66,1132.34,976.52,1125.54,981.35,1124.51z"/>
	<path fill="#8F9294" d="M901.21,1204.3199c5-2.0499,10.69,3.53,8.5,8.52c-1.41,4.51-7.78,5.99-11,2.52
		C895.15,1212.14,896.7,1205.75,901.21,1204.3199z"/>
	<path fill="#8E9193" d="M1245.27,859.48c3.74-2.13,9.1699,0.1,9.83,4.5c1.41,5.23-4.84,9.95-9.5399,7.35
		C1240.8199,869.19,1240.72,861.86,1245.27,859.48z"/>
	<path fill="#8E9193" d="M1326.38,885.47c5-1.68,10.05,3.73,8.17,8.58c-1.29,4.66-7.9601,6.09-11.16,2.52
		C1319.89,893.21,1321.7,886.65,1326.38,885.47z"/>
	<path fill="#8E9193" d="M1165.42,939.33c4.4099-3.1,11.1799,1.25,10.14,6.59c-0.4401,4.48-5.8201,7.21-9.7401,5.08
		C1161.25,948.95,1161.08,941.77,1165.42,939.33z"/>
	<path fill="#8E9193" d="M794.14,992.18c4.55-2.53,10.75,1.69,9.69,6.89c-0.26,4.86-6.73,7.5-10.46,4.5
		C789.18,1001.08,789.87,994.19,794.14,992.18z"/>
	<path fill="#8E9193" d="M1405.3,1018.51c4.3099-1.81,9.6599,1.69,9.23,6.48c0.03,5.2-6.5901,8.3-10.63,5.13
		C1399.78,1027.37,1400.52,1020.06,1405.3,1018.51z"/>
	<path fill="#8E9193" d="M664.16,1070.6899c3.19,0.8301,6.6801,2.6201,6.97,6.3401c0.73,4.0499-2.89,6.7-6.15,8.0699l-0.02-0.27
		C664.78,1080.11,664.64,1075.39,664.16,1070.6899z"/>
	<path fill="#8E9193" d="M847.34,1098.37c4.8-2.67,11.06,2.4,9.47,7.63c-0.91,5.14-8.48,6.75-11.59,2.75
		C842.42,1105.64,843.49,1100.08,847.34,1098.37z"/>
	<path fill="#8E9193" d="M1166.3101,1204.41c3.6399-1.39,8.35,0.49,9.08,4.5699c1.7,5.1-4.4,10.1901-9.12,7.75
		C1160.91,1214.85,1160.98,1206.27,1166.3101,1204.41z"/>
	<path fill="#8F9193" d="M1299.17,859.19c4.7899-2.35,10.61,2.81,8.96,7.86c-0.96,4.65-7.16,6.47-10.6801,3.52
		C1293.58,867.69,1294.5,860.75,1299.17,859.19z"/>
	<path fill="#8F9193" d="M1220.33,885.45c4.0601-1.15,8.6901,2.25,8.3301,6.57c0.4,5.33-6.89,8.7-10.78,5.09
		C1213.47,894.13,1215.1899,886.51,1220.33,885.45z"/>
	<path fill="#8F9193" d="M1432.36,885.57c4.61-1.74,9.8101,2.8,8.6,7.6c-0.5499,4.76-6.76,7.06-10.45,4.19
		C1426.01,894.6,1427.3,886.9,1432.36,885.57z"/>
	<path fill="#8F9193" d="M1139.4,912.42c4.02-2,9.5699,0.91,9.5499,5.57c0.7101,4.95-5.0499,8.76-9.4099,6.54
		C1134.46,922.68,1134.52,914.47,1139.4,912.42z"/>
	<path fill="#8F9193" d="M870.07,919.87c4.6-0.98,9.21-1.91,13.82-2.89c-0.33,3.48-1.83,7.72-5.89,8.11
		C874.23,925.93,871.44,922.99,870.07,919.87z"/>
	<path fill="#8F9193" d="M689.39,938.57c4.74-1.45,9.74,3.62,8.04,8.36c-1.13,5.12-8.66,6.49-11.62,2.25
		C682.73,945.63,684.82,939.55,689.39,938.57z"/>
	<path fill="#8F9193" d="M742.45,938.52c5.17-1.57,10.42,4.64,7.66,9.39c-1.83,4.41-8.48,5.16-11.2,1.23
		C735.82,945.61,737.95,939.56,742.45,938.52z"/>
	<path fill="#8F9193" d="M1218.37,939.43c4.1-3.05,10.51,0.48,10.3199,5.54c0.3601,5.07-6.1599,8.79-10.2599,5.6201
		C1214.3,948.33,1214.4,941.78,1218.37,939.43z"/>
	<path fill="#8F9193" d="M927.32,965.44c3.96-1.81,9.19,1.05,9.31,5.55c0.79,4.98-5.03,8.89-9.43,6.68
		C922.02,975.75,922.11,967.29,927.32,965.44z"/>
	<path fill="#8F9193" d="M1351.52,965.68c4.4199-2.55,10.47,1.22,9.9399,6.34c0.0801,5.41-7.35,8.25-11.08,4.56
		C1346.8101,973.82,1347.64,967.74,1351.52,965.68z"/>
	<path fill="#8F9193" d="M1325.1899,992.15c4.91-2.6801,11.26,2.5099,9.5,7.86c-1.21,5.17-8.87,6.46-11.87,2.2
		C1320.37,998.96,1321.52,993.91,1325.1899,992.15z"/>
	<path fill="#8F9193" d="M768.21,1018.41c4.69-1.93,10.22,2.67,9.05,7.6301c-0.73,4.6499-6.71,6.89-10.45,4.1799
		C762.54,1027.4301,763.4,1020.13,768.21,1018.41z"/>
	<path fill="#8F9193" d="M1087.1899,1018.34c4.64-1.76,9.8501,2.87,8.63,7.69c-0.6799,4.84-7.13,6.97-10.7699,3.9199
		C1080.9399,1026.9301,1082.29,1019.72,1087.1899,1018.34z"/>
	<path fill="#8F9193" d="M847.3,1045.3199c4.47-2.62,10.51,1.7301,9.68,6.77c-0.28,4.9401-6.87,7.61-10.62,4.54
		C842.29,1054.1,842.91,1047.1899,847.3,1045.3199z"/>
	<path fill="#8F9193" d="M1006.35,1045.47c4.01-2.5499,10.1,0.63,9.96,5.48c0.5,4.9601-5.35,8.5701-9.67,6.3401
		C1001.9,1055.35,1001.8,1047.6801,1006.35,1045.47z"/>
	<path fill="#8F9193" d="M981.38,1071.38c4.56-1.45,9.32,2.97,8.26,7.63c-0.65,5.11-7.79,7.45-11.25,3.5699
		C974.61,1079.29,976.48,1072.37,981.38,1071.38z"/>
	<path fill="#8F9193" d="M1087.3,1071.4399c4.1799-1.4199,8.99,2.0701,8.6399,6.54c0.28,5.67-7.7899,8.84-11.4399,4.51
		C1080.91,1079.23,1082.7,1072.64,1087.3,1071.4399z"/>
	<path fill="#8F9193" d="M1352.39,1071.55c4.6-1.8601,10.13,2.5399,8.98,7.48c-0.61,4.51-6.3199,7.02-10.09,4.52
		C1346.52,1081.1,1347.35,1073.14,1352.39,1071.55z"/>
	<path fill="#8F9193" d="M1006.39,1098.49c4.45-2.7,10.64,1.38,9.87,6.54c-0.2,4.34-5.03,7.02-8.98,5.59
		C1002.01,1109.08,1001.58,1100.88,1006.39,1098.49z"/>
	<path fill="#8F9193" d="M1166.1801,1098.3c5.1699-2.79,11.45,3.3899,8.9399,8.63c-1.76,5.24-10.48,5.46-12.29,0.1599
		C1161.26,1103.87,1162.86,1099.64,1166.1801,1098.3z"/>
	<path fill="#8F9193" d="M1378.3199,1098.37c4.4601-2.4399,10.3,1.6801,9.62,6.66c-0.12,5.08-6.6499,7.64-10.5499,4.74
		C1373.3101,1107.23,1373.9399,1100.22,1378.3199,1098.37z"/>
	<path fill="#8F9193" d="M1431.37,1098.41c4.38-2.55,10.49,1.61,9.65,6.64c-0.16,5.0399-6.89,7.88-10.6901,4.6699
		C1426.54,1106.91,1426.98,1100.4,1431.37,1098.41z"/>
	<path fill="#8F9193" d="M1087.28,1124.5c4.89-1.61,10.14,3.37,8.4,8.33c-1.15,5.42-9.4501,6.41-12.0901,1.67
		C1081.1801,1130.92,1083.25,1125.71,1087.28,1124.5z"/>
	<path fill="#8F9193" d="M1246.4,1124.59c4.5599-1.74,9.96,2.66,8.72,7.51c-0.48,4.8101-6.8099,7.1-10.54,4.27
		C1240.29,1133.49,1241.35,1126,1246.4,1124.59z"/>
	<path fill="#8F9193" d="M820.27,1125.23c4.26-2.74,10.43,0.7001,10.2,5.78c0.1801,4.6899-5.28,8.16-9.45,6
		C816.22,1135.24,815.74,1127.62,820.27,1125.23z"/>
	<path fill="#8F9193" d="M688.33,1151.4c3.66-1.63,8.55,0.51,9.19,4.63c1.53,5.1599-4.46,9.97-9.22,7.6
		C683.1,1161.74,683.1,1153.22,688.33,1151.4z"/>
	<path fill="#8F9193" d="M794.31,1151.52c4.32-2.3301,10.22,1.53,9.56,6.47c-0.08,4.8-6.15,7.97-10.14,5.26
		C789.29,1160.8199,789.56,1153.41,794.31,1151.52z"/>
	<path fill="#8F9193" d="M1166.34,1151.34c4.01-1.77,9.25,1.1801,9.25,5.74c0.64,5.14-5.64,9.04-9.97,6.2101
		C1160.8,1161.02,1161.33,1153.04,1166.34,1151.34z"/>
	<path fill="#8F9193" d="M1432.24,1151.21c4.71-1.9099,10.04,2.92,8.6801,7.79c-0.89,4.92-7.87,7.0601-11.2001,3.22
		C1426.15,1159.05,1427.63,1152.5,1432.24,1151.21z"/>
	<path fill="#8F9193" d="M928.37,1177.5601c4.57-1.29,9.38,3.35,8.11,7.98c-0.78,5.33-8.63,7.0399-11.71,2.74
		C921.69,1184.77,923.69,1178.36,928.37,1177.5601z"/>
	<path fill="#8F9193" d="M767.27,1178.27c4.22-2.6901,10.28,0.77,10.12,5.77c0.2,4.6699-5.22,8.1799-9.42,6.1699
		C763.08,1188.38,762.74,1180.7,767.27,1178.27z"/>
	<path fill="#8F9193" d="M1007.25,1204.36c3.54-1.41,8.05,0.72,8.8,4.5601c1.09,3.58-1.31,7.5399-4.97,8.2899
		c-3,0.63-6.27-0.9299-7.46-3.7799C1001.79,1210.12,1003.8,1205.61,1007.25,1204.36z"/>
	<path fill="#8F9193" d="M767.33,1231.38c3.77-2.22,9.42,0.08,9.93,4.61c1.1,4.88-4.34,9.3101-8.95,7.53
		C763.21,1241.8101,762.48,1233.8,767.33,1231.38z"/>
	<path fill="#8F9193" d="M1086.23,1231.29c4.89-2.91,11.34,2.4099,9.47,7.76c-1.0599,4.97-8.2699,6.5-11.36,2.58
		C1081.28,1238.71,1082.3,1232.87,1086.23,1231.29z"/>
	<path fill="#8F9193" d="M1139.26,1231.28c4.11-2.38,9.9399,0.9199,9.72,5.73c0.41,4.2-3.85,7.7-7.91,6.71
		C1135.13,1243.04,1133.65,1233.55,1139.26,1231.28z"/>
	<path fill="#8F9193" d="M689.19,1257.29c4.84-1.53,9.9,3.49,8.27,8.36c-1.16,4.96-8.45,6.4399-11.52,2.4299
		C682.78,1264.62,684.59,1258.34,689.19,1257.29z"/>
	<path fill="#8F9193" d="M848.2,1257.36c4.7-1.6899,9.9,2.8101,8.69,7.7001c-0.77,4.7899-7.24,7.11-10.85,3.86
		C842.01,1265.9,843.37,1258.74,848.2,1257.36z"/>
	<path fill="#8F9193" d="M1110.12,1260.21c2.21-3.9399,8.52-4.26,11.08-0.49c1.7001,2.05,1.05,4.8401,1.0701,7.3101
		c-3.8301,0.78-7.62,1.77-11.4,2.73C1110,1266.7,1108.11,1263.2,1110.12,1260.21z"/>
	<path fill="#8F9193" d="M767.37,1284.52c4.07-2.6,10.09,0.63,10,5.53c0.46,4.9299-5.41,8.4199-9.67,6.23
		C762.98,1294.3101,762.81,1286.78,767.37,1284.52z"/>
	<path fill="#8F9193" d="M714.4,1337.59c3.68-2.3099,8.93,0.0901,9.7,4.3401c1.59,5.13-4.85,10.2999-9.45,7.46
		C709.87,1347.35,709.66,1339.8,714.4,1337.59z"/>
	<path fill="#8F9192" d="M1352.13,859.23c4.4301-2.16,9.98,1.78,9.28,6.71c-0.01,5.58-7.89,8.11-11.4401,4.11
		C1346.7,866.96,1347.92,860.84,1352.13,859.23z"/>
	<path fill="#8F9192" d="M1087.1899,965.28c4.63-1.79,9.9,2.8799,8.64,7.71c-0.74,5.02-7.7799,6.94-11.24,3.45
		C1081.1,973.2,1082.37,966.43,1087.1899,965.28z"/>
	<path fill="#8F9192" d="M874.31,1018.47c4.68-2,10.38,2.39,9.13,7.47c-0.61,5.04-7.55,7.2401-11.08,3.7301
		C868.75,1026.65,869.85,1020.05,874.31,1018.47z"/>
	<path fill="#8F9192" d="M927.31,1018.54c4.68-2.21,10.53,2.29,9.22,7.42c-0.57,5.0901-7.6,7.17-11.11,3.64
		C921.84,1026.62,922.97,1020.17,927.31,1018.54z"/>
	<path fill="#8F9192" d="M1299.35,1018.46c4.61-2.11,10.14,2.7,8.87,7.56c-0.59,4.9299-7.47,7.1699-10.9199,3.6699
		C1293.5,1026.76,1294.67,1019.8,1299.35,1018.46z"/>
	<path fill="#8F9192" d="M715.35,1071.53c4.98-2.0601,10.58,3.4299,8.54,8.4399c-1.23,4.77-8.11,6.1-11.24,2.42
		C709.39,1079.12,710.89,1072.84,715.35,1071.53z"/>
	<path fill="#8F9192" d="M1246.3,1071.51c5.0299-2.01,10.63,3.42,8.62,8.48c-1.4,5.03-8.9301,6.11-11.75,1.8101
		C1240.51,1078.42,1242.16,1072.78,1246.3,1071.51z"/>
	<path fill="#8F9192" d="M688.22,1098.25c4.85-2.4399,10.91,2.49,9.28,7.73c-0.84,5.17-8.22,6.73-11.47,2.9301
		C682.98,1105.77,684.25,1099.97,688.22,1098.25z"/>
	<path fill="#8F9192" d="M1059.34,1098.59c3.37-2.0299,8.48-0.48,9.61,3.4601c1.91,4.33-2.24,9.88-7.01,8.83
		C1055.67,1110.85,1053.92,1101.34,1059.34,1098.59z"/>
	<path fill="#8F9192" d="M1404.3101,1125.24c3.9099-2.54,9.62,0.12,10.1799,4.76c1.01,5-4.96,9.45-9.46,7
		C1400.36,1135.03,1399.89,1127.76,1404.3101,1125.24z"/>
	<path fill="#8F9195" d="M1404.36,859.59c4.11-2.59,10.14,0.44,10.1801,5.41c0.64,5.43-6.36,8.98-10.5901,5.87
		C1400.0601,868.28,1400.36,861.93,1404.36,859.59z"/>
	<path fill="#8F9195" d="M1033.34,912.41c3.9501-1.97,9.4601,0.9901,9.4401,5.54c0.78,4.87-5.1,8.89-9.4,6.61
		C1028.28,922.6,1028.28,914.41,1033.34,912.41z"/>
	<path fill="#8F9195" d="M1192.35,912.56c5.11-3.06,11.7101,2.85,9.38,8.22c-1.45,4.74-8.63,5.95-11.4399,1.85
		C1187.46,919.59,1188.77,914.37,1192.35,912.56z"/>
	<path fill="#8F9195" d="M1298.46,965.7c3.99-2.27,9.78,0.61,9.8401,5.35c0.84,5.08-5.4301,9.02-9.7201,6.4
		C1293.87,975.42,1293.9399,967.91,1298.46,965.7z"/>
	<path fill="#8F9195" d="M900.2,992.22c4.57-2.59,10.93,1.59,9.84,6.88c-0.42,5.22-7.49,7.61-11.12,4
		C895.49,1000.26,896.29,994.22,900.2,992.22z"/>
	<path fill="#8F9195" d="M1140.37,1124.61c4.11-1.51,9.01,1.9301,8.61,6.38c0.41,5.24-6.4299,8.53-10.45,5.4301
		C1134.04,1133.72,1135.15,1125.74,1140.37,1124.61z"/>
	<path fill="#8F9195" d="M1060.23,1151.33c5.13-2.5,11.1801,3.49,8.6801,8.63c-1.41,4.86-8.6801,5.5801-11.5,1.64
		C1054.78,1158.3101,1056.17,1152.72,1060.23,1151.33z"/>
	<path fill="#8F9195" d="M1404.37,1178.36c4.47-3.0699,11.08,1.21,10.14,6.55c-0.42,4.72-6.29,7.52-10.1901,4.8099
		C1400.16,1187.38,1400.2,1180.67,1404.37,1178.36z"/>
	<path fill="#FDFFFF" d="M529.44,885.65c4.59-1.98,9.9,2.58,8.89,7.4c-0.59,4.8-6.91,7.21-10.64,4.25
		C523.54,894.44,524.54,887.1,529.44,885.65z"/>
	<path fill="#FCFEFE" d="M582.45,885.65c4.56-1.94,9.95,2.48,9.01,7.31c-0.57,4.8-7.01,7.46-10.7,4.24
		C576.55,894.4,577.69,887.16,582.45,885.65z"/>
	<path fill="#FCFEFE" d="M635.35,1204.47c4.6801-2.1599,10.41,2.41,9.15,7.4601c-0.69,4.73-6.82,6.9399-10.53,4.12
		C629.82,1213.3101,630.61,1206.11,635.35,1204.47z"/>
	<path fill="#909195" d="M1113.49,885.64c5.03-2.13,10.59,3.34,8.67,8.39c-1.3301,4.86-8.35,6.16-11.4401,2.28
		C1107.66,893.04,1109.21,886.99,1113.49,885.64z"/>
	<path fill="#909195" d="M1273.33,885.5c4.63-1.5,9.62,3.26,8.3401,7.94c-0.9501,4.63-7.3,6.9-10.8,3.57
		C1266.54,893.99,1268.33,886.68,1273.33,885.5z"/>
	<path fill="#909195" d="M1405.1899,912.3c4.0801-1.79,9.27,1.16,9.3501,5.74c0.61,5.15-5.5901,8.94-9.9501,6.26
		C1399.79,922,1400.3,914.18,1405.1899,912.3z"/>
	<path fill="#909195" d="M768.24,965.35c4.34-1.75,9.67,1.97,9.1,6.71c0.02,5.03-6.52,7.98-10.42,5.01
		C762.5,974.46,763.43,966.96,768.24,965.35z"/>
	<path fill="#909195" d="M1193.25,965.32c5.33-2.23,10.96,4.08,8.1899,9.14c-1.8799,5.0099-9.86,5-11.9099,0.17
		C1187.51,971.18,1189.64,966.6,1193.25,965.32z"/>
	<path fill="#909195" d="M1113.16,1045.21c4.7799-2.61,10.84,2.7001,9.08,7.8c-0.96,4.61-7.1799,6.4299-10.65,3.4
		C1107.77,1053.52,1108.6801,1046.9399,1113.16,1045.21z"/>
	<path fill="#909195" d="M1034.29,1124.5c4.76-1.55,9.6899,3.25,8.37,8.03c-0.9601,4.9399-7.98,6.84-11.3101,3.09
		C1027.85,1132.26,1029.6899,1125.71,1034.29,1124.5z"/>
	<path fill="#909195" d="M901.19,1151.24c5.03-2.17,10.67,3.62,8.48,8.59c-1.37,4.4701-7.77,5.8401-10.9,2.4301
		C895.16,1159.13,896.67,1152.6,901.19,1151.24z"/>
	<path fill="#909195" d="M1033.1899,1231.1801c4.54-2.53,10.5601,1.85,9.5801,6.95c-0.34,5.12-7.4401,7.59-11,4.03
		C1028.27,1239.29,1029,1233,1033.1899,1231.1801z"/>
	<path fill="#919194" d="M1379.3101,885.54c5.1499-1.89,10.4099,3.88,8.2,8.83c-1.59,5.02-9.4301,5.69-11.9,1.07
		C1373.34,891.91,1375.25,886.66,1379.3101,885.54z"/>
	<path fill="#919194" d="M821.3,965.4c4.46-1.96,9.76,1.96,9.16,6.79c-0.2401,4.96-6.58,7.9-10.5,4.85
		C815.5,974.47,816.56,967.01,821.3,965.4z"/>
	<path fill="#8F9093" d="M1000.99,892.49c5.07-1.09,10.16-2.09,15.24-3.17c-0.2,2.04,0.33,4.36-0.89,6.18
		c-1.75,2.6-5.38,3.94-8.3,2.57c-2.53-0.73-3.24-3.53-4.52-5.48C1002.13,892.57,1001.37,892.51,1000.99,892.49z"/>
	<path fill="#8F9093" d="M1060.25,1257.47c4.66-1.95,10.28,2.5701,9.01,7.54c-0.52,4.97-7.52,7.2-10.9401,3.71
		C1054.53,1265.76,1055.6899,1258.99,1060.25,1257.47z"/>
	<path fill="#909194" d="M661.6,911.46c2.89,0.81,5.76,1.69,8.65,2.53c0.63,2.83,1.64,6.2-0.57,8.65
		c-2.86,3.98-9.82,2.96-11.39-1.68C656.47,917.32,659.55,914.13,661.6,911.46z"/>
	<path fill="#909194" d="M953.23,939.19c3.53-2.01,8.59-0.21,9.65,3.82c1.82,4.66-3.08,9.96-7.89,8.52
		C949.16,950.66,948.02,941.71,953.23,939.19z"/>
	<path fill="#909194" d="M687.39,992.55c4.04-2.9,10.55,0.37,10.3,5.43c0.28,4.58-4.82,8.21-9.05,6.38
		C683.58,1002.85,682.91,995.17,687.39,992.55z"/>
	<path fill="#909194" d="M847.2,992.22c4.55-2.59,10.7,1.6201,9.71,6.82c-0.21,5.18-7.49,7.72-11.04,4.09
		C842.44,1000.29,843.1,994.09,847.2,992.22z"/>
	<path fill="#909194" d="M1112.34,992.44c3.48-2.23,8.62-0.4,9.8,3.59c1.9399,4.73-3.1801,10.25-8.09,8.55
		C1108.52,1003.46,1107.38,995.08,1112.34,992.44z"/>
	<path fill="#909194" d="M1165.42,992.37c5.24-3.46,12.5599,2.9,9.58,8.54c-1.77,5.06-10.03,5.2-12.02,0.29
		C1161.24,998.13,1162.66,994.28,1165.42,992.37z"/>
	<path fill="#909194" d="M1431.22,992.25c4.5701-2.63,10.87,1.52,9.77,6.82c-0.28,4.92-6.9399,7.56-10.61,4.43
		C1426.5699,1000.88,1427.02,994.21,1431.22,992.25z"/>
	<path fill="#909194" d="M741.19,1045.28c4.48-2.39,10.5,1.78,9.53,6.84c-0.3,4.36-5.35,7.01-9.24,5.25
		C736.34,1055.6,736.17,1047.3101,741.19,1045.28z"/>
	<path fill="#909194" d="M1219.1801,1045.23c4.7599-2.62,11.0199,2.5801,9.2699,7.73c-0.84,4.4601-6.6,6.29-10.1899,3.87
		C1214.0699,1054.27,1214.51,1047.05,1219.1801,1045.23z"/>
	<path fill="#909194" d="M1299.45,1124.65c4.55-1.8101,9.9301,2.5699,8.79,7.4199c-0.48,4.5701-6.1899,7.02-9.98,4.63
		C1293.5,1134.27,1294.1899,1126.04,1299.45,1124.65z"/>
	<path fill="#909194" d="M1352.42,1124.64c4.9299-1.98,10.6799,3.28,8.6799,8.35c-1.23,5.21-9.28,6.25-11.9299,1.6901
		C1346.92,1131.22,1348.36,1125.96,1352.42,1124.64z"/>
	<path fill="#909194" d="M954.16,1151.28c5.34-2.4501,11.28,4.2,8.32,9.21c-1.87,4.3-8.5,5-11.17,1.15
		C948.42,1158.4,950.03,1152.55,954.16,1151.28z"/>
	<path fill="#909194" d="M1272.3101,1151.46c4-2.02,9.36,0.9701,9.4299,5.53c0.63,4.64-4.38,8.4301-8.72,6.87
		C1267.4301,1162.54,1266.86,1153.38,1272.3101,1151.46z"/>
	<path fill="#909194" d="M741.33,1204.46c4-1.7899,9.15,0.91,9.43,5.4c0.9,5.3101-5.75,9.5-10.18,6.4401
		C736,1213.88,736.67,1206.37,741.33,1204.46z"/>
	<path fill="#909194" d="M1272.25,1204.5c3.78-1.58,8.8101,0.45,9.41,4.78c1.36,5.14-4.6801,9.86-9.35,7.38
		C1267.2,1214.73,1267.28,1206.54,1272.25,1204.5z"/>
	<path fill="#909194" d="M1326.15,1204.26c4.2899-1.54,9.3199,2.2,8.72,6.8099c-0.11,4.6101-5.58,7.7101-9.63,5.54
		C1319.9,1214.52,1320.61,1205.61,1326.15,1204.26z"/>
	<path fill="#909194" d="M820.31,1231.45c3.71-2.38,9.51-0.0299,10.01,4.51c1.15,4.9-4.23,9.39-8.89,7.51
		C816.21,1241.92,815.69,1234.04,820.31,1231.45z"/>
	<path fill="#909194" d="M980.16,1284.27c4.54-2.38,10.33,1.75,9.53,6.79c-0.17,4.95-6.54,7.5399-10.38,4.74
		C974.96,1293.34,975.67,1286.16,980.16,1284.27z"/>
	<path fill="#909194" d="M741.51,1310.71c3.83-1.6499,8.87,0.88,9.22,5.1901c0.98,5.02-5.07,9.52-9.57,6.9199
		C736.16,1320.6899,736.34,1312.54,741.51,1310.71z"/>
	<path fill="#FBFEFD" d="M502.32,912.41c4.78-2.48,10.91,2.39,9.39,7.61c-0.9,4.9-7.65,6.83-11.11,3.35
		C497.15,920.38,498.12,914.16,502.32,912.41z"/>
	<path fill="#FBFEFD" d="M635.15,1045.1899c4.8-2.5,10.88,2.53,9.24,7.7001c-0.93,4.6899-7.29,6.58-10.8,3.5
		C629.92,1053.48,630.73,1046.89,635.15,1045.1899z"/>
	<path fill="#FBFEFD" d="M556.26,1071.45c4.21-1.49,9.06,2.0601,8.68,6.5601c0.19,5.11-6.39,8.45-10.47,5.35
		C549.92,1080.55,551.09,1072.8101,556.26,1071.45z"/>
	<path fill="#FBFEFD" d="M659.96,1125.99c1.96-2.01,4.91-1.61,7.45-1.65c0.02,0.1901,0.06,0.5701,0.08,0.76
		c0.18,3.9301,0.43,7.86,0.74,11.8l-0.27,0.38c-2.23,0.01-4.67,0.73-6.7-0.49C657.23,1134.92,656.58,1128.78,659.96,1125.99z"/>
	<path fill="#FBFEFD" d="M661.28,1231.3c3.81-2.2201,9.17,0.3199,9.7599,4.72c1.4,5.36-5.5,9.97-10.0099,6.88
		C656.65,1240.55,656.83,1233.4399,661.28,1231.3z"/>
	<path fill="#FAFEFE" d="M555.35,912.45c4.42-2.39,10.27,1.65,9.57,6.61c-0.11,4.73-6.08,7.76-10.01,5.2
		C550.37,921.85,550.65,914.52,555.35,912.45z"/>
	<path fill="#FAFEFE" d="M528.29,992.42c3.48-2.25,8.71-0.37,9.78,3.68c1.91,4.94-3.65,10.5-8.6,8.33
		C524.22,1002.98,523.54,994.91,528.29,992.42z"/>
	<path fill="#FCFEFF" d="M608.34,912.51c4.0099-2.2,9.58,0.79,9.62,5.44c0.72,5-5.26,9.02-9.65,6.49
		C603.58,922.17,603.52,914.73,608.34,912.51z"/>
	<path fill="#919193" d="M927.25,912.33c4.78-2.3,10.69,2.41,9.21,7.59c-0.71,4.99-7.5,6.88-11,3.54
		C921.94,920.46,922.9,914.03,927.25,912.33z"/>
	<path fill="#919293" d="M1086.29,912.44c4.0499-2.07,9.61,0.97,9.6499,5.61c0.4901,4.55-4.6899,8.59-8.95,6.65
		C1081.4301,923.27,1081.21,914.64,1086.29,912.44z"/>
	<path fill="#909192" d="M1245.45,912.53c4.8101-2.7401,11.1901,2.23,9.62,7.55c-0.97,4.66-7.22,6.71-10.7699,3.55
		C1240.63,920.76,1241.27,914.59,1245.45,912.53z"/>
	<path fill="#909192" d="M848.15,1151.22c4.99-2.0599,10.53,3.51,8.45,8.49c-1.39,4.8301-8.5099,6.1001-11.48,2.05
		C842.23,1158.34,843.79,1152.46,848.15,1151.22z"/>
	<path fill="#909192" d="M1352.09,1177.9301c4.11-2.02,9.5801,1.4399,9.36,6.0699c0.2301,4.77-5.3899,8.36-9.63,6.11
		C1346.84,1187.97,1347,1179.85,1352.09,1177.9301z"/>
	<path fill="#909192" d="M795.11,1204.33c4.68-1.87,9.92,2.8501,8.65,7.6801c-0.83,4.72-7.1,6.91-10.77,3.87
		C788.92,1212.89,790.15,1205.58,795.11,1204.33z"/>
	<path fill="#909192" d="M1060.24,1204.45c3.62-1.4299,8.16,0.62,8.95,4.5601c1.6201,5.04-4.25,10.16-9.0199,7.74
		C1054.72,1214.98,1054.75,1206.08,1060.24,1204.45z"/>
	<path fill="#909192" d="M715.06,1231.01c3.36-1.45,7.88,0.33,8.84,4c2.04,4.98-3.59,10.53-8.58,8.5
		C709.69,1241.88,709.46,1232.86,715.06,1231.01z"/>
	<path fill="#8F9293" d="M1299.22,912.26c3.62-1.48,8.4,0.7,8.9501,4.77c1.5199,5.24-4.87,10.27-9.55,7.37
		C1293.53,922.24,1294.03,913.98,1299.22,912.26z"/>
	<path fill="#8F9293" d="M1405.3,965.43c4.37-2.01,9.76,1.71,9.24,6.55c0,5.12-6.63,8.21-10.5801,5
		C1399.6899,974.33,1400.59,967.05,1405.3,965.43z"/>
	<path fill="#8F9293" d="M1218.41,992.53c4.4299-3.16,11.3099,1.0099,10.24,6.45c-0.41,4.79-6.49,7.59-10.34,4.72
		C1214.35,1001.31,1214.42,994.86,1218.41,992.53z"/>
	<path fill="#8F9293" d="M1034.21,1018.32c4.86-1.69,10.17,3.5,8.3,8.3799c-1.23,4.91-8.42,6.3501-11.47,2.3401
		C1028.04,1025.59,1029.6801,1019.44,1034.21,1018.32z"/>
	<path fill="#8F9293" d="M714.21,1178.23c4.57-2.8199,11.05,1.4401,9.98,6.77c-0.43,4.36-5.49,7.01-9.41,5.1899
		C709.95,1188.27,709.63,1180.58,714.21,1178.23z"/>
	<path fill="#8F9293" d="M795.32,1310.46c4.16-1.34,8.91,2.0601,8.56,6.53c0.32,5.88-8.43,9.02-11.79,4.11
		C788.95,1317.71,790.86,1311.53,795.32,1310.46z"/>
	<path fill="#FAFEFD" d="M528.3,939.27c4.22-2.67,10.33,0.74,10.13,5.74c0.1,4.62-5.18,8.23-9.4,6.16
		C524.16,949.37,523.72,941.65,528.3,939.27z"/>
	<path fill="#FBFDFD" d="M581.36,939.29c4.15-2.7599,10.42,0.71,10.16,5.73c0.26,5-6.03,8.59-10.17,5.72
		C577.11,948.4,577.14,941.65,581.36,939.29z"/>
	<path fill="#FBFDFD" d="M581.35,992.43c4.4301-3.01,11.07,1.23,10.13,6.53c-0.39,4.72-6.34,7.59-10.21,4.82
		C577.04,1001.46,577.23,994.74,581.35,992.43z"/>
	<path fill="#FAFEFC" d="M634.39,939.36c4.15-2.8,10.39,0.57,10.24,5.6c0.33,5.08-6.17,8.75-10.3,5.67
		C630.22,948.32,630.28,941.64,634.39,939.36z"/>
	<path fill="#FAFEFC" d="M582.16,1098.23c4.78-2.41,10.7401,2.59,9.17,7.71c-0.94,5.3-8.72,6.8601-11.77,2.5801
		C576.84,1105.28,578.22,1099.78,582.16,1098.23z"/>
	<path fill="#909191" d="M793.4,939.56c4.12-3.22,10.74,0.27,10.5099,5.47c0.4,5.24-6.48,8.72-10.52,5.45
		C789.61,948.1,789.72,941.96,793.4,939.56z"/>
	<path fill="#909191" d="M715.44,1124.6c4.56-1.72,9.84,2.6901,8.75,7.5c-0.52,4.51-6.15,6.9401-9.93,4.66
		C709.43,1134.35,710.1,1125.97,715.44,1124.6z"/>
	<path fill="#8F9291" d="M847.17,939.14c3.7-2.12,9.33,0.26,9.7,4.73c1.25,5.08-4.52,9.53-9.16,7.35
		C842.71,949.29,842.28,941.48,847.17,939.14z"/>
	<path fill="#8F9191" d="M900.21,939.09c4.56-2.66,11.02,1.68,9.7599,6.96c-0.37,4.87-6.8,7.37-10.52,4.37
		C895.47,947.82,896.04,941.2,900.21,939.09z"/>
	<path fill="#8F9191" d="M741.23,1098.3101c4.69-2.5801,10.84,2.3099,9.44,7.45c-0.72,4.74-6.77,6.72-10.49,4.04
		C736.12,1107.15,736.76,1100.17,741.23,1098.3101z"/>
	<path fill="#8F9191" d="M742.24,1257.35c3.81-1.25,8.3,1.5701,8.52,5.66c0.97,5.5699-6.58,9.83-10.81,5.98
		C735.74,1265.98,737.13,1258.46,742.24,1257.35z"/>
	<path fill="#8F9191" d="M714.33,1284.49c3.33-2.01,8.41-0.37,9.5,3.5c2.14,4.7-2.9,10.17-7.78,8.78
		C710.26,1295.87,709.01,1286.9399,714.33,1284.49z"/>
	<path fill="#8E9296" d="M1271.37,939.55c3.75-2.91,9.9-0.22,10.35,4.49c0.89,4.81-4.4099,9.2401-8.96,7.22
		C1267.8101,949.71,1266.87,942.19,1271.37,939.55z"/>
	<path fill="#8E9292" d="M1378.11,939.16c4.21-2.54,10.16,0.91,9.84,5.8701c0.4801,5.27-6.45,8.64-10.49,5.48
		C1373.4399,947.97,1373.86,941.23,1378.11,939.16z"/>
	<path fill="#8E9292" d="M1192.1899,1178.2c3.76-2.1899,9.3501,0.2001,9.8,4.7101c1.12,4.7999-4.03,9.1899-8.65,7.5499
		C1187.96,1188.91,1187.1801,1180.71,1192.1899,1178.2z"/>
	<path fill="#909093" d="M1431.16,939.16c3.74-2.19,9.4199,0.2,9.8099,4.72c1.3,5.39-5.2899,9.89-9.9099,6.96
		C1426.61,948.54,1426.75,941.43,1431.16,939.16z"/>
	<path fill="#909093" d="M821.44,1071.5699c4.97-2.12,10.72,3.39,8.63,8.41c-1.29,4.74-8.33,6.15-11.3,2.25
		C815.69,1078.98,816.99,1072.78,821.44,1071.5699z"/>
	<path fill="#909093" d="M1299.37,1071.55c4.98-2.12,10.58,3.4199,8.62,8.4099c-1.1799,4.51-7.5599,6.03-10.85,2.88
		C1293.61,1079.73,1294.65,1072.87,1299.37,1071.55z"/>
	<path fill="#909093" d="M900.31,1098.4399c4.01-2.3199,9.62,0.8601,9.76,5.4801c0.52,4.3199-3.84,8.01-8.04,6.9099
		C896.09,1110.04,894.84,1100.86,900.31,1098.4399z"/>
	<path fill="#909093" d="M1139.12,1178.2c3.54-2.12,8.65-0.0599,9.64,3.9801c1.5699,4.58-2.99,9.72-7.77,8.4299
		C1135.14,1189.74,1133.75,1180.74,1139.12,1178.2z"/>
	<path fill="#FBFEFF" d="M502.32,965.51c4.43-2.04,10.16,1.53,9.52,6.54c-0.01,4.88-6.16,7.85-10.15,5.26
		C497.19,974.87,497.58,967.45,502.32,965.51z"/>
	<path fill="#FBFEFF" d="M657.86,1076.9301c0.24-3.4501,3.44-5.17,6.3-6.2401c0.48,4.7001,0.6201,9.42,0.8,14.14
		C661.04,1084.41,656.98,1081.27,657.86,1076.9301z"/>
	<path fill="#FBFEFF" d="M661.37,1284.38c4.82-3,11.45,2.4399,9.53,7.74c-1.1,5.03-8.44,6.5-11.53,2.49
		C656.59,1291.5601,657.62,1286.13,661.37,1284.38z"/>
	<path fill="#FCFEFD" d="M557.06,965.11c4.49-1.09,8.95,3.39,7.74,7.87c-0.69,4.72-7.09,6.92-10.67,3.88
		C549.67,973.73,551.52,965.63,557.06,965.11z"/>
	<path fill="#FCFFFD" d="M608.42,965.53c4.03-1.84,9.45,0.75,9.52,5.4399c1,5.39-5.89,9.3101-10.23,6.28
		C603.38,974.71,603.93,967.59,608.42,965.53z"/>
	<path fill="#909092" d="M658.16,968.28c2.32-2.46,5.9301-4.54,9.27-2.66c4.54,2.03,4.97,8.98,0.73,11.58
		c-3.1,2.39-6.8199,0.26-9.68-1.38c-0.1-0.45-0.3-1.33-0.4-1.77c1.78-0.79,1.14-3.11,0.04-4.18
		C658.13,969.47,658.15,968.68,658.16,968.28z"/>
	<path fill="#909092" d="M981.21,1018.29c4.41-1.5099,9.16,2.6,8.5099,7.16c-0.28,5.02-6.96,7.8401-10.75,4.55
		C974.72,1027.01,975.98,1019.33,981.21,1018.29z"/>
	<path fill="#B3C7D8" d="M658.12,969.87c1.1,1.07,1.74,3.39-0.04,4.18C657.65,972.65,657.67,971.25,658.12,969.87z"/>
	<path fill="#FAFDFD" d="M634.39,992.44c4.41-3.03,11.21,1.18,10.15,6.54c-0.2599,5.1-7.2,7.72-10.89,4.32
		C630.12,1000.59,630.59,994.68,634.39,992.44z"/>
	<path fill="#FAFEFB" d="M503.27,1018.34c5.5-2.03,10.91,4.8,7.71,9.67c-2.13,4.3-8.93,4.5599-11.35,0.42
		C497.02,1024.9301,499.01,1019.34,503.27,1018.34z"/>
	<path fill="#FAFEFA" d="M555.42,1018.66c3.9-1.94,9.21,0.75,9.46,5.21c0.97,5.11-5.2,9.38-9.68,6.8101
		C550.35,1028.51,550.47,1020.64,555.42,1018.66z"/>
	<path fill="#FBFDFF" d="M608.44,1018.66c3.89-1.92,9.36,0.71,9.48,5.25c0.99,5.1501-5.2,9.34-9.69,6.7601
		C603.48,1028.39,603.63,1020.79,608.44,1018.66z"/>
	<path fill="#909290" d="M663.03,1018.19c5.29-1.34,9.98,4.64,7.52,9.46c-1.33,3.5499-5.48,3.76-8.69,3.7999
		c-0.1-4.23-0.31-8.4399-0.62-12.64C661.69,1018.66,662.59,1018.35,663.03,1018.19z"/>
	<path fill="#8E9192" d="M821.32,1018.46c4.62-1.9,10.3,2.48,9.03,7.4799c-0.58,4.75-6.81,7.1001-10.48,4.16
		C815.63,1027.4301,816.49,1019.95,821.32,1018.46z"/>
	<path fill="#8E9192" d="M793.49,1098.6899c4.49-2.98,11.18,0.9701,10.38,6.38c-0.18,4.9901-6.68,7.79-10.55,4.75
		C789.45,1107.38,789.79,1101.1,793.49,1098.6899z"/>
	<path fill="#8E9192" d="M1242.73,1233.74c1.72-3.02,5.9501-4.13,8.99-2.46c2.03,0.9099,2.8401,3.1699,3.9501,4.96l0.0699,0.13
		c-4.61,0.97-9.2,2-13.78,3.0699C1242.16,1237.52,1242.04,1235.54,1242.73,1233.74z"/>
	<path fill="#8E9195" d="M1246.29,1018.42c5.11-2.07,10.5699,3.5,8.61,8.55c-1.4301,5.2001-9.77,6.0701-12.0601,1.12
		C1240.5,1024.71,1242.5,1019.66,1246.29,1018.42z"/>
	<path fill="#8E9195" d="M1325.33,1098.3199c4.7301-2.5699,10.9801,2.4401,9.37,7.63c-0.88,5.2101-8.3099,6.74-11.5599,2.8601
		C1320.28,1105.65,1321.4,1100,1325.33,1098.3199z"/>
	<path fill="#F7FEFF" d="M657.78,1025.01c-0.35-2.64,1.47-4.78,3.46-6.2c0.31,4.2,0.52,8.41,0.62,12.64
		C660.08,1029.62,657.73,1027.8199,657.78,1025.01z"/>
	<path fill="#FBFFFF" d="M528.33,1045.47c4.46-2.8099,10.92,1.23,10.06,6.51c-0.29,4.84-6.32,7.5701-10.27,4.9301
		C523.97,1054.53,524.12,1047.72,528.33,1045.47z"/>
	<path fill="#FAFEFF" d="M581.35,1045.52c4.1-2.64,10.19,0.5,10.16,5.46c0.47,4.9-5.31,8.5601-9.59,6.3
		C577.15,1055.37,576.91,1047.91,581.35,1045.52z"/>
	<path fill="#FAFEFF" d="M582.23,1151.35c4.42-1.98,9.83,1.8101,9.26,6.6801c-0.12,4.98-6.59,8-10.52,4.97
		C576.73,1160.29,577.46,1153.03,582.23,1151.35z"/>
	<path fill="#8E9194" d="M1165.39,1045.59c4.37-3.0599,11.0699,1.03,10.15,6.3401c-0.12,4.96-6.4401,7.5199-10.3201,4.9299
		C1161.1801,1054.48,1161.29,1047.89,1165.39,1045.59z"/>
	<path fill="#8E9194" d="M1113.2,1098.27c4.0901-2,9.2301,1.23,9.3,5.76c0.59,5.01-5.52,8.83-9.8,6.24
		C1107.79,1108.0699,1108.09,1100.05,1113.2,1098.27z"/>
	<path fill="#8E9194" d="M954.24,1257.39c5.03-1.9401,10.77,3.5699,8.54,8.62c-1.25,4.37-7.28,5.8199-10.6,2.89
		C948.31,1265.85,949.56,1258.91,954.24,1257.39z"/>
	<path fill="#FBFEFC" d="M608.53,1071.73c4.25-2.11,9.91,1.37,9.4399,6.22c0.32,4.91-5.7,8.2201-9.83,5.77
		C603.41,1081.4,603.72,1073.79,608.53,1071.73z"/>
	<path fill="#FBFDFB" d="M635.21,1098.25c4.83-2.39,10.79,2.5699,9.21,7.77c-0.9,5.0499-8.19,6.73-11.4,2.9299
		C629.89,1105.85,631.07,1099.85,635.21,1098.25z"/>
	<path fill="#FCFEFB" d="M556.43,1124.53c4.08-1.39,8.75,2.12,8.5,6.4399c0.38,5.4501-7.01,8.77-10.96,5.1
		C549.87,1132.99,551.4,1125.67,556.43,1124.53z"/>
	<path fill="#FDFFFE" d="M609.4,1124.53c4.12-1.3401,8.93,2,8.56,6.46c0.44,5.25-6.39,8.6-10.44,5.39
		C602.95,1133.6,604.33,1125.88,609.4,1124.53z"/>
	<path fill="#91939B" d="M667.49,1125.1c4.79,2.26,4.39,8.6901,0.74,11.8C667.92,1132.96,667.67,1129.03,667.49,1125.1z"/>
	<path fill="#FBFEFE" d="M635.23,1151.39c4.39-2.0601,9.92,1.6899,9.39,6.59c-0.07,5.15-6.66,8-10.64,4.96
		C629.9,1160.24,630.51,1153.04,635.23,1151.39z"/>
	<path fill="#FBFEFE" d="M608.15,1178.23c4.12-2.54,10.19,0.8201,9.79,5.76c0.63,5.34-6.43,8.8101-10.45,5.48
		C603.49,1186.97,603.88,1180.22,608.15,1178.23z"/>
	<path fill="#8F9095" d="M1087.4399,1177.61c4.8-1.65,9.91,3.61,8.2401,8.38c-1.2101,4.77-8.1901,6.48-11.3201,2.61
		C1080.9399,1185.24,1082.74,1178.67,1087.4399,1177.61z"/>
	<path fill="#8F9095" d="M896.46,1319.02c0.18-3.61,1.38-8.26,5.67-8.7001c3.77-0.98,6.38,2.02,8.27,4.79
		c0.39,0.09,1.16,0.27,1.55,0.36C906.8,1316.7,901.58,1317.67,896.46,1319.02z"/>
	<path fill="#869399" d="M1374.52,1208.87c1.34-2.04,2.7999-4.48,5.5-4.78c2.45-0.6599,4.64,0.88,6.6799,2.01
		C1382.66,1207.11,1378.61,1208.09,1374.52,1208.87z"/>
	<path fill="#8B9298" d="M1029.4399,1288.3199c1.27-1.6799,2.4-3.85,4.64-4.34c2.9801-0.8199,5.89,0.84,8.8101,1.3201
		C1038.4301,1286.41,1033.92,1287.29,1029.4399,1288.3199z"/>
	<path fill="#8F9094" d="M848.32,1310.47c4.59-1.5699,9.78,2.78,8.56,7.62c-0.6,4.9601-7.23,7.12-10.88,3.91
		C841.94,1318.9399,843.38,1311.72,848.32,1310.47z"/>
	<path fill="#898F99" d="M683.96,1367.84c1.87-1.72,3.42-4.27,6.19-4.5399c2.0699-0.41,3.88,0.98,5.69,1.75
		C691.89,1366.04,687.94,1367,683.96,1367.84z"/>
</g>
</svg>
